<svg width="17" height="17" viewBox="0 0 17 17" fill="none" xmlns="http://www.w3.org/2000/svg">
<g clip-path="url(#clip0_11796_33265)">
<path d="M16.3601 6.57767C16.0395 4.72722 15.0733 3.05091 13.6338 1.84748C12.1943 0.644062 10.375 -0.00827794 8.50008 0.00672279H8.22008C8.02008 0.00672279 7.82008 0.00672279 7.62675 0.0467896C6.1124 0.214771 4.68021 0.822956 3.50675 1.79637C2.60247 2.50825 1.86471 3.40977 1.3453 4.43765C0.82588 5.46553 0.537391 6.59484 0.500085 7.74629C0.472576 8.61831 0.587421 9.48898 0.840085 10.3239C1.14278 11.4828 1.71845 12.552 2.51883 13.4421C3.31921 14.3321 4.32096 15.0169 5.44008 15.4391C6.41229 15.833 7.45137 16.0348 8.50008 16.0334C9.15771 16.0326 9.81309 15.9565 10.4534 15.8064C11.6882 15.5506 12.8363 14.9802 13.7868 14.1503C14.8548 13.2357 15.6574 12.0499 16.1102 10.7175C16.563 9.38503 16.6493 7.95506 16.3601 6.57767ZM13.1268 12.5877C12.5243 13.2043 11.8043 13.6934 11.0095 14.0261C10.2148 14.3587 9.36143 14.5281 8.50008 14.5243C6.75684 14.5111 5.09019 13.8049 3.86675 12.561C3.28006 11.9712 2.81731 11.2697 2.50586 10.4978C2.19441 9.72589 2.04056 8.89929 2.05342 8.06682C2.12675 4.27383 4.77342 1.62943 8.50008 1.62275C12.2468 1.62275 14.9001 4.29387 14.9468 8.08686C14.9595 8.91989 14.8049 9.747 14.4923 10.519C14.1796 11.2911 13.7153 11.9923 13.1268 12.581V12.5877Z" fill="#86C240"/>
<path d="M11.4007 6.41735H13.1673C13.254 8.34056 11.834 10.0968 9.64732 9.48246C9.12923 9.29768 8.62561 9.07447 8.14065 8.81468C7.83398 8.66777 7.54065 8.48747 7.22732 8.35392C7.07611 8.27032 6.9066 8.2255 6.7339 8.22346C6.56119 8.22142 6.39067 8.26222 6.23754 8.34223C6.0844 8.42223 5.95341 8.53894 5.85624 8.68197C5.75907 8.82499 5.69875 8.98988 5.68065 9.16193C5.65046 9.30977 5.62821 9.45912 5.61398 9.60934H3.83398C3.83398 7.14523 5.56065 6.01669 7.40065 6.54423C7.85904 6.69872 8.30481 6.88849 8.73398 7.11185C9.09398 7.28547 9.44065 7.50584 9.80732 7.65275C9.96138 7.73828 10.1347 7.78294 10.3109 7.7825C10.487 7.78205 10.6601 7.73651 10.8137 7.6502C10.9674 7.56389 11.0964 7.43968 11.1886 7.28935C11.2809 7.13903 11.3332 6.96759 11.3407 6.79131C11.374 6.68447 11.3807 6.55759 11.4007 6.41735Z" fill="#86C240"/>
</g>
<defs>
<clipPath id="clip0_11796_33265">
<rect width="16" height="16" fill="white" transform="translate(0.5 0.0200195)"/>
</clipPath>
</defs>
</svg>
