<svg width="17" height="17" viewBox="0 0 14 14" fill="none" xmlns="http://www.w3.org/2000/svg">
<path d="M9.33203 6.33398C9.60981 6.33398 9.84592 6.23676 10.0404 6.04232C10.2348 5.84787 10.332 5.61176 10.332 5.33398C10.332 5.05621 10.2348 4.8201 10.0404 4.62565C9.84592 4.43121 9.60981 4.33398 9.33203 4.33398C9.05425 4.33398 8.81814 4.43121 8.6237 4.62565C8.42925 4.8201 8.33203 5.05621 8.33203 5.33398C8.33203 5.61176 8.42925 5.84787 8.6237 6.04232C8.81814 6.23676 9.05425 6.33398 9.33203 6.33398ZM4.66536 6.33398C4.94314 6.33398 5.17925 6.23676 5.3737 6.04232C5.56814 5.84787 5.66536 5.61176 5.66536 5.33398C5.66536 5.05621 5.56814 4.8201 5.3737 4.62565C5.17925 4.43121 4.94314 4.33398 4.66536 4.33398C4.38759 4.33398 4.15148 4.43121 3.95703 4.62565C3.76259 4.8201 3.66536 5.05621 3.66536 5.33398C3.66536 5.61176 3.76259 5.84787 3.95703 6.04232C4.15148 6.23676 4.38759 6.33398 4.66536 6.33398ZM6.9987 8.00065C6.24314 8.00065 5.55703 8.21454 4.94036 8.64232C4.3237 9.0701 3.87648 9.63398 3.5987 10.334H10.3987C10.1209 9.63398 9.6737 9.0701 9.05703 8.64232C8.44036 8.21454 7.75425 8.00065 6.9987 8.00065ZM6.9987 13.6673C6.07648 13.6673 5.20981 13.4923 4.3987 13.1423C3.58759 12.7923 2.88203 12.3173 2.28203 11.7173C1.68203 11.1173 1.20703 10.4118 0.857031 9.60065C0.507031 8.78954 0.332031 7.92287 0.332031 7.00065C0.332031 6.07843 0.507031 5.21176 0.857031 4.40065C1.20703 3.58954 1.68203 2.88398 2.28203 2.28398C2.88203 1.68398 3.58759 1.20898 4.3987 0.858984C5.20981 0.508984 6.07648 0.333984 6.9987 0.333984C7.92092 0.333984 8.78759 0.508984 9.5987 0.858984C10.4098 1.20898 11.1154 1.68398 11.7154 2.28398C12.3154 2.88398 12.7904 3.58954 13.1404 4.40065C13.4904 5.21176 13.6654 6.07843 13.6654 7.00065C13.6654 7.92287 13.4904 8.78954 13.1404 9.60065C12.7904 10.4118 12.3154 11.1173 11.7154 11.7173C11.1154 12.3173 10.4098 12.7923 9.5987 13.1423C8.78759 13.4923 7.92092 13.6673 6.9987 13.6673ZM6.9987 12.334C8.48759 12.334 9.7487 11.8173 10.782 10.784C11.8154 9.75065 12.332 8.48954 12.332 7.00065C12.332 5.51176 11.8154 4.25065 10.782 3.21732C9.7487 2.18398 8.48759 1.66732 6.9987 1.66732C5.50981 1.66732 4.2487 2.18398 3.21536 3.21732C2.18203 4.25065 1.66536 5.51176 1.66536 7.00065C1.66536 8.48954 2.18203 9.75065 3.21536 10.784C4.2487 11.8173 5.50981 12.334 6.9987 12.334Z" fill="#EF4444"/>
</svg>
