<svg width="237" height="151" viewBox="0 0 237 151" fill="none" xmlns="http://www.w3.org/2000/svg">
<path d="M67.1463 37.3853H23.0078V5.9043H67.1463V37.3853ZM23.3563 37.022H66.7977V6.26765H23.3563V37.022Z" fill="#EBEBEB"/>
<path d="M26.4617 7.92151C26.4617 8.10261 26.4102 8.27964 26.3137 8.43022C26.2172 8.5808 26.08 8.69816 25.9195 8.76747C25.759 8.83677 25.5824 8.8549 25.412 8.81957C25.2417 8.78424 25.0852 8.69703 24.9623 8.56898C24.8395 8.44092 24.7558 8.27777 24.722 8.10015C24.6881 7.92253 24.7055 7.73842 24.7719 7.57111C24.8384 7.40379 24.951 7.26079 25.0954 7.16018C25.2399 7.05956 25.4097 7.00586 25.5834 7.00586C25.8163 7.00586 26.0397 7.10233 26.2044 7.27405C26.3692 7.44577 26.4617 7.67867 26.4617 7.92151Z" fill="#A6A6A6"/>
<path d="M30.0476 7.92151C30.0476 8.10261 29.9961 8.27964 29.8996 8.43022C29.8031 8.5808 29.6659 8.69816 29.5054 8.76747C29.3449 8.83677 29.1683 8.8549 28.998 8.81957C28.8276 8.78424 28.6711 8.69703 28.5483 8.56898C28.4254 8.44092 28.3418 8.27777 28.3079 8.10015C28.274 7.92253 28.2914 7.73842 28.3579 7.57111C28.4244 7.40379 28.5369 7.26079 28.6814 7.16018C28.8258 7.05956 28.9956 7.00586 29.1693 7.00586C29.4023 7.00586 29.6257 7.10233 29.7904 7.27405C29.9551 7.44577 30.0476 7.67867 30.0476 7.92151Z" fill="#EBEBEB"/>
<path d="M33.6355 7.92151C33.6355 8.10261 33.584 8.27964 33.4875 8.43022C33.391 8.5808 33.2538 8.69816 33.0933 8.76747C32.9328 8.83677 32.7562 8.8549 32.5859 8.81957C32.4155 8.78424 32.259 8.69703 32.1362 8.56898C32.0133 8.44092 31.9297 8.27777 31.8958 8.10015C31.8619 7.92253 31.8793 7.73842 31.9458 7.57111C32.0122 7.40379 32.1248 7.26079 32.2693 7.16018C32.4137 7.05956 32.5835 7.00586 32.7572 7.00586C32.9902 7.00586 33.2136 7.10233 33.3783 7.27405C33.543 7.44577 33.6355 7.67867 33.6355 7.92151Z" fill="#9ECE66"/>
<path d="M66.9716 9.54492H23.1816V9.90828H66.9716V9.54492Z" fill="#EBEBEB"/>
<path d="M226.284 93.0261L221.712 93.1278L219.39 93.1678C218.613 93.186 217.832 93.1678 217.055 93.1896H216.902V93.0261L216.881 88.9493V88.7676H217.055L221.67 88.7894C223.21 88.7894 224.747 88.8293 226.284 88.8475H226.382V88.9493C226.382 89.6396 226.354 90.3264 226.337 91.0058L226.284 93.0261ZM226.284 93.0261L226.236 90.9731C226.218 90.2973 226.197 89.6287 226.19 88.9602L226.284 89.0619C224.747 89.0801 223.21 89.12 221.67 89.12L217.055 89.1418L217.229 88.9602V93.0261L217.073 92.8662C217.832 92.8662 218.592 92.8662 219.355 92.8844L221.624 92.9462L226.284 93.0261Z" fill="#EBEBEB"/>
<path d="M221.136 98.1519L216.564 98.2536L214.239 98.2936C213.465 98.2936 212.684 98.2936 211.907 98.3154H211.754V98.1519V94.086V93.9043H211.928L216.543 93.9297C218.08 93.9297 219.62 93.9697 221.157 93.9879H221.255V94.086C221.255 94.7763 221.227 95.4631 221.21 96.1426L221.136 98.1519ZM221.136 98.1519L221.088 96.0989C221.07 95.4231 221.049 94.7545 221.042 94.086L221.136 94.1877C219.599 94.2059 218.059 94.2458 216.522 94.2458L211.907 94.2677L212.082 94.086V98.1519L211.925 97.992C212.684 97.992 213.444 97.992 214.208 98.0102L216.497 98.0538L221.136 98.1519Z" fill="#EBEBEB"/>
<path d="M231.431 98.1519L226.858 98.2536L224.537 98.2936C223.76 98.2936 222.979 98.2936 222.202 98.3154H222.048V98.1519L222.027 94.086V93.9043H222.202L226.816 93.9297C228.357 93.9297 229.894 93.9697 231.431 93.9879H231.528V94.086C231.528 94.7763 231.497 95.4631 231.483 96.1426L231.431 98.1519ZM231.431 98.1519L231.382 96.0989C231.382 95.4231 231.344 94.7545 231.337 94.086L231.431 94.1877C229.894 94.2059 228.357 94.2458 226.816 94.2458L222.202 94.2677L222.376 94.086V98.1519L222.219 97.992C222.982 97.992 223.739 97.992 224.502 98.0102L226.795 98.0538L231.431 98.1519Z" fill="#EBEBEB"/>
<path d="M101.655 44.6444L97.0827 44.7462L94.7614 44.7861C93.9842 44.7861 93.2035 44.7861 92.4262 44.7861H92.2729V44.6226L92.252 40.5567V40.375H92.4262L97.0408 40.3968C98.5813 40.3968 100.118 40.4368 101.655 40.4549H101.753V40.553C101.753 41.2434 101.722 41.9265 101.704 42.606L101.655 44.6444ZM101.655 44.6444L101.607 42.5878C101.607 41.912 101.568 41.2434 101.561 40.5785L101.655 40.6766C100.118 40.6766 98.5813 40.7347 97.0408 40.7347L92.4262 40.7602L92.6005 40.5785L92.5831 44.6444L92.4262 44.4809C93.186 44.4809 93.9458 44.4809 94.7091 44.5027L97.0025 44.5427L101.655 44.6444Z" fill="#EBEBEB"/>
<path d="M96.5003 49.7713L91.9275 49.8731L89.6028 49.913C88.829 49.913 88.0483 49.913 87.2711 49.9312H87.1177V49.7677L87.0898 45.709V45.5273H87.2641L91.8787 45.5491C93.4158 45.5491 94.9563 45.5891 96.4933 45.6073H96.5909V45.709C96.5909 46.3994 96.563 47.0825 96.5456 47.762L96.5003 49.7713ZM96.5003 49.7713L96.4515 47.7147C96.4341 47.0389 96.4132 46.3703 96.4062 45.7054L96.5003 45.8035C94.9632 45.8217 93.4227 45.8616 91.8857 45.8616L87.2711 45.8871L87.4453 45.7054L87.4384 49.7713L87.2815 49.6078C88.0413 49.6078 88.8012 49.6078 89.5644 49.6296L91.8543 49.6696L96.5003 49.7713Z" fill="#EBEBEB"/>
<path d="M106.802 49.7713L102.229 49.8731L99.9079 49.913C99.1307 49.913 98.3534 49.913 97.5727 49.9312H97.4194V49.7677L97.3984 45.709V45.5273H97.5727L102.187 45.5491C103.728 45.5491 105.265 45.5891 106.802 45.6073H106.9V45.709C106.9 46.3994 106.868 47.0825 106.854 47.762L106.802 49.7713ZM106.802 49.7713L106.753 47.7147C106.753 47.0389 106.715 46.3703 106.708 45.7054L106.802 45.8035C105.265 45.8217 103.728 45.8616 102.187 45.8616L97.5727 45.8871L97.747 45.7054L97.7296 49.7713L97.5727 49.6078C98.336 49.6078 99.0923 49.6078 99.8556 49.6296L102.149 49.6696L106.802 49.7713Z" fill="#EBEBEB"/>
<path d="M17.1736 106.349L12.6008 106.447L10.2761 106.491C9.50232 106.491 8.7216 106.491 7.94437 106.509H7.79102V106.349V102.283V102.098H7.96528L12.5799 102.119C14.1169 102.119 15.6574 102.159 17.1945 102.178H17.2921V102.276C17.2921 102.962 17.2642 103.649 17.2468 104.329L17.1736 106.349ZM17.1736 106.349L17.1248 104.292C17.1074 103.616 17.0864 102.948 17.0795 102.283L17.1736 102.381C15.6365 102.381 14.096 102.439 12.559 102.439L7.94437 102.465L8.11864 102.283L8.09773 106.349L7.94437 106.185C8.70418 106.185 9.46398 106.185 10.2238 106.204L12.5172 106.247L17.1736 106.349Z" fill="#EBEBEB"/>
<path d="M179.403 44.6419L174.831 44.7436L172.509 44.7836C171.732 44.8017 170.952 44.7836 170.174 44.8017H170.021V44.6382L170 40.5723V40.3906H170.174L174.789 40.4124C176.329 40.4124 177.866 40.456 179.403 40.4742H179.501V40.5723C179.501 41.2627 179.473 41.9494 179.456 42.6253L179.403 44.6419ZM179.403 44.6419L179.355 42.5889C179.337 41.9094 179.316 41.2409 179.309 40.5759L179.403 40.674C177.866 40.6922 176.329 40.7322 174.789 40.7358L170.174 40.7576L170.349 40.5759V44.6419L170.192 44.4784C170.951 44.4784 171.711 44.4784 172.475 44.5002L174.768 44.5401L179.403 44.6419Z" fill="#EBEBEB"/>
<path d="M225.75 5.15191L221.177 5.25365L218.852 5.29362C218.078 5.29362 217.298 5.29362 216.521 5.31542H216.367V5.15191V1.08597V0.904297H216.541L221.156 0.926099C222.693 0.926099 224.234 0.969701 225.771 0.987868H225.868V1.08597C225.868 1.77635 225.84 2.46309 225.823 3.13893L225.75 5.15191ZM225.75 5.15191L225.701 3.09896C225.684 2.41949 225.663 1.75091 225.656 1.08597L225.75 1.18408C224.213 1.18408 222.672 1.24222 221.135 1.24585L216.521 1.26765L216.695 1.08597L216.677 5.15191L216.521 4.9884C217.28 4.9884 218.04 4.9884 218.803 5.0102L221.093 5.05017L225.75 5.15191Z" fill="#EBEBEB"/>
<path d="M230.9 10.2786L226.327 10.3803L224.006 10.4203C223.228 10.4385 222.448 10.4203 221.67 10.4385H221.517V10.275L221.496 6.20902V6.02734H221.67L226.285 6.04914C227.825 6.04914 229.363 6.09275 230.9 6.11092H230.997V6.20902C230.997 6.89939 230.966 7.58613 230.948 8.26197L230.9 10.2786ZM230.9 10.2786L230.851 8.22564C230.851 7.54617 230.812 6.87759 230.805 6.21265L230.9 6.31076C229.363 6.31076 227.825 6.3689 226.285 6.37253L221.67 6.39433L221.845 6.21265V10.2786L221.688 10.1151C222.448 10.1151 223.207 10.1151 223.971 10.1369L226.264 10.1769L230.9 10.2786Z" fill="#EBEBEB"/>
<path d="M16.1067 5.15582L11.5305 5.25756L9.20924 5.29752C8.4355 5.29752 7.65478 5.29752 6.87754 5.31933H6.7207V5.15582V1.08988V0.908203H6.89846L11.5131 0.933638C13.0501 0.933638 14.5871 0.973607 16.1277 0.991774H16.2218V1.08988C16.2218 1.78025 16.1904 2.46699 16.1765 3.14647L16.1067 5.15582ZM16.1067 5.15582L16.0545 3.10286C16.0545 2.42339 16.0161 1.75482 16.0092 1.08988L16.1067 1.18799C14.5662 1.20979 13.0292 1.24612 11.4921 1.24976L6.87754 1.27156L7.05181 1.08988L7.0309 5.15582L6.87754 5.01411C7.63735 5.01411 8.39367 5.01411 9.15696 5.01411L11.4503 5.05408L16.1067 5.15582Z" fill="#EBEBEB"/>
<path d="M42.4206 90.1547L18.1347 96.7786L9.98242 64.2766L28.0121 59.3604L34.2649 57.6562L35.8193 63.8478L42.4206 90.1547Z" fill="#EBEBEB"/>
<path d="M13.935 69.9111L33.7188 64.5195L33.5098 63.6864L13.7261 69.078L13.935 69.9111Z" fill="#DBDBDB"/>
<path d="M14.4624 72.0166L34.2461 66.625L34.0372 65.7918L14.2534 71.1835L14.4624 72.0166Z" fill="#DBDBDB"/>
<path d="M14.9917 74.1279L34.7754 68.7363L34.5665 67.9032L14.7827 73.2948L14.9917 74.1279Z" fill="#DBDBDB"/>
<path d="M15.519 76.2315L35.3027 70.8398L35.0938 70.0067L15.3101 75.3983L15.519 76.2315Z" fill="#DBDBDB"/>
<path d="M16.0444 78.3369L35.8281 72.9453L35.6192 72.1122L15.8355 77.5038L16.0444 78.3369Z" fill="#DBDBDB"/>
<path d="M16.7079 80.0697L36.543 74.7402L36.3365 73.9049L16.5014 79.2344L16.7079 80.0697Z" fill="#DBDBDB"/>
<path d="M17.103 82.5537L36.8867 77.1621L36.6778 76.329L16.8941 81.7206L17.103 82.5537Z" fill="#DBDBDB"/>
<path d="M17.7743 84.2709L37.6094 78.9414L37.4029 78.1061L17.5678 83.4356L17.7743 84.2709Z" fill="#DBDBDB"/>
<path d="M18.3094 86.3666L38.1445 81.0371L37.938 80.2018L18.1029 85.5313L18.3094 86.3666Z" fill="#DBDBDB"/>
<path d="M18.6889 88.874L38.4727 83.4824L38.2637 82.6493L18.48 88.0409L18.6889 88.874Z" fill="#DBDBDB"/>
<path d="M19.3758 90.5697L39.2109 85.2402L39.0044 84.4049L19.1693 89.7344L19.3758 90.5697Z" fill="#DBDBDB"/>
<path d="M19.9071 92.6674L39.7422 87.3379L39.5357 86.5026L19.7006 91.8321L19.9071 92.6674Z" fill="#DBDBDB"/>
<path d="M48.8694 99.5325L23.8063 100.993L22.0078 67.4519L40.6161 66.3691L47.4125 72.3827L48.8694 99.5325Z" fill="#EBEBEB"/>
<path d="M40.6152 66.3691L47.4117 72.3827L40.9568 72.7605L40.6152 66.3691Z" fill="#DBDBDB"/>
<path d="M24.8067 73.7965L38.7402 72.9844L38.6941 72.1246L24.7605 72.9367L24.8067 73.7965Z" fill="#DBDBDB"/>
<path d="M24.9199 75.9723L38.8535 75.1602L38.8074 74.3004L24.8738 75.1125L24.9199 75.9723Z" fill="#DBDBDB"/>
<path d="M25.0371 78.1461L38.9707 77.334L38.9246 76.4742L24.991 77.2863L25.0371 78.1461Z" fill="#DBDBDB"/>
<path d="M25.1537 80.3209L45.5703 79.1309L45.5242 78.2711L25.1075 79.4611L25.1537 80.3209Z" fill="#DBDBDB"/>
<path d="M25.2708 82.4927L45.6875 81.3027L45.6414 80.4429L25.2247 81.6329L25.2708 82.4927Z" fill="#DBDBDB"/>
<path d="M25.388 84.6685L45.8047 83.4785L45.7586 82.6187L25.3419 83.8087L25.388 84.6685Z" fill="#DBDBDB"/>
<path d="M25.5013 86.8404L45.918 85.6504L45.8719 84.7906L25.4552 85.9806L25.5013 86.8404Z" fill="#DBDBDB"/>
<path d="M25.6185 89.0162L46.0352 87.8262L45.989 86.9664L25.5724 88.1564L25.6185 89.0162Z" fill="#DBDBDB"/>
<path d="M25.7376 91.1881L46.1543 89.998L46.1082 89.1382L25.6915 90.3282L25.7376 91.1881Z" fill="#DBDBDB"/>
<path d="M25.8548 93.3599L46.2715 92.1699L46.2254 91.3101L25.8087 92.5001L25.8548 93.3599Z" fill="#DBDBDB"/>
<path d="M25.9681 95.5357L46.3848 94.3457L46.3387 93.4859L25.922 94.6759L25.9681 95.5357Z" fill="#DBDBDB"/>
<path d="M26.0892 97.7115L46.5059 96.5215L46.4597 95.6617L26.0431 96.8517L26.0892 97.7115Z" fill="#DBDBDB"/>
<path d="M190.406 31.3972L214.448 49.8447L226.267 33.0686L202.225 14.6211L190.406 31.3972Z" fill="#EBEBEB"/>
<path d="M192.139 31.1165L214.187 48.0343L224.532 33.3438L202.483 16.4297L192.139 31.1165Z" fill="white"/>
<path d="M201.258 22.5425C200.91 23.0369 200.709 23.6281 200.683 24.2412C200.656 24.8543 200.805 25.4618 201.109 25.9869C201.414 26.512 201.861 26.9312 202.394 27.1913C202.928 27.4515 203.523 27.541 204.105 27.4485C204.687 27.356 205.229 27.0857 205.664 26.6718C206.098 26.2578 206.406 25.7188 206.546 25.1229C206.687 24.527 206.655 23.901 206.455 23.3239C206.254 22.7469 205.894 22.2449 205.42 21.8812C204.784 21.3945 203.988 21.1908 203.208 21.3148C202.428 21.4388 201.727 21.8803 201.258 22.5425Z" fill="#DBDBDB"/>
<path d="M198.969 36.3938L214.154 48.0503L214.137 31.4922L198.969 36.3938Z" fill="#DBDBDB"/>
<path d="M193.012 31.8325L205.549 41.4505L204.214 29.6523L193.012 31.8325Z" fill="#EBEBEB"/>
<path d="M181.689 23.4614L211.538 23.8792L211.785 3.06629L181.933 2.64844L181.689 23.4614Z" fill="#EBEBEB"/>
<path d="M182.943 22.1815L210.317 22.5666L210.53 4.34441L183.156 3.96289L182.943 22.1815Z" fill="white"/>
<path d="M185.571 9.68025C185.563 10.2946 185.73 10.8975 186.052 11.4127C186.373 11.9279 186.833 12.3323 187.375 12.5747C187.916 12.8171 188.515 12.8866 189.094 12.7745C189.674 12.6624 190.208 12.3736 190.63 11.9448C191.052 11.516 191.343 10.9663 191.465 10.3653C191.588 9.76423 191.536 9.13887 191.318 8.56823C191.099 7.99759 190.724 7.50731 190.238 7.15938C189.752 6.81145 189.178 6.6215 188.589 6.61354C188.198 6.60826 187.809 6.68339 187.446 6.83466C187.082 6.98592 186.751 7.21035 186.47 7.49513C186.19 7.7799 185.966 8.11945 185.812 8.49438C185.658 8.86931 185.576 9.27227 185.571 9.68025Z" fill="#DBDBDB"/>
<path d="M191.441 22.3304L210.297 22.5956L201.044 9.14062L191.441 22.3304Z" fill="#DBDBDB"/>
<path d="M184.051 22.2322L199.616 22.4502L191.945 13.668L184.051 22.2322Z" fill="#EBEBEB"/>
<path d="M226.984 84.8864C222.526 91.1834 217.877 98.4904 216.744 106.39C216.744 106.51 216.915 106.55 216.939 106.43C217.454 104.278 218.113 102.166 218.912 100.111C221.843 99.268 224.722 98.5776 226.259 95.5436C227.831 92.426 227.632 88.3601 227.333 84.9627C227.312 84.7738 227.075 84.7665 226.984 84.8864Z" fill="#9ECE66"/>
<path d="M218.957 100.042C220.958 95.358 223.53 90.6526 226.799 86.7974C226.82 86.772 226.855 86.7974 226.834 86.8337C224.694 89.5807 223.07 92.5675 221.481 95.6087C222.959 94.0463 224.576 92.6474 225.973 90.9905C226.001 90.9578 226.047 90.9905 226.019 91.0377C224.625 92.7746 223.115 94.6713 221.307 95.9467C220.819 96.8805 220.331 97.8179 219.836 98.7518C219.954 98.6827 220.08 98.6209 220.205 98.5555C220.23 98.5555 220.247 98.5773 220.226 98.5882C220.087 98.6609 219.951 98.7372 219.808 98.8026C219.574 99.2459 219.341 99.6892 219.111 100.129C219.045 100.212 218.916 100.143 218.957 100.042Z" fill="#263238"/>
<path d="M220.445 98.3959C221.645 97.6986 222.79 96.9028 223.868 96.016C223.899 95.9905 223.941 96.016 223.91 96.0596C222.863 97.001 221.717 97.8152 220.494 98.4868C220.483 98.4935 220.469 98.4952 220.456 98.4915C220.444 98.4877 220.433 98.4789 220.426 98.4668C220.42 98.4548 220.418 98.4405 220.422 98.4272C220.425 98.414 220.434 98.4027 220.445 98.3959Z" fill="#263238"/>
<path d="M216.228 105.208C216.232 105.228 216.242 105.245 216.257 105.258C216.272 105.271 216.291 105.278 216.31 105.278C216.329 105.278 216.348 105.271 216.363 105.258C216.378 105.245 216.388 105.228 216.392 105.208C216.413 102.61 216.392 99.9976 216.43 97.3851C217.068 96.0406 218.441 95.2958 219.393 94.2202C220.08 93.4335 220.678 92.5666 221.174 91.6368C222.321 89.4166 223.023 86.9762 223.237 84.4642C223.498 81.6845 222.488 72.5062 221.362 72.8368C220.78 73.0003 218.891 77.5604 218.392 79.0502C217.58 81.5322 216.986 84.0862 216.618 86.6806C215.698 92.7705 215.782 99.0529 216.228 105.208Z" fill="#9ECE66"/>
<path d="M216.212 93.9959C216.347 90.7039 217.058 87.3829 217.724 84.1854C218.442 80.748 219.279 77.5105 220.976 74.4438C220.983 74.434 220.994 74.4272 221.005 74.4248C221.017 74.4224 221.029 74.4245 221.039 74.4308C221.05 74.437 221.057 74.447 221.061 74.4587C221.065 74.4705 221.064 74.4833 221.06 74.4947C219.928 76.8796 219.053 79.3874 218.449 81.9725C218.561 81.7872 218.7 81.6092 218.819 81.4348C218.864 81.3657 218.975 81.4348 218.927 81.5038C218.776 81.7824 218.599 82.0442 218.397 82.285C218.397 82.285 218.397 82.285 218.376 82.285C217.79 84.7413 217.372 87.2521 217.013 89.7592C217.041 89.7302 217.065 89.6938 217.093 89.6647C217.121 89.6357 217.142 89.6647 217.132 89.6938C217.086 89.7774 217.034 89.8573 216.989 89.9409C216.808 91.2126 216.64 92.4844 216.469 93.7416C218.644 91.8049 220.499 89.523 221.548 86.7107C221.548 86.7107 221.572 86.7107 221.565 86.7107C220.54 89.6175 218.923 92.2191 216.435 93.9778L216.299 94.9952C216.299 95.0642 216.18 95.046 216.184 94.9952C216.184 94.6936 216.184 94.392 216.208 94.094C216.202 94.0874 216.197 94.0795 216.194 94.071C216.191 94.0624 216.19 94.0534 216.19 94.0442C216.19 94.0351 216.193 94.0261 216.196 94.0178C216.2 94.0096 216.205 94.0021 216.212 93.9959Z" fill="#263238"/>
<path d="M217.232 89.2277C218.894 86.6442 220.445 84.1407 221.662 81.2775C221.662 81.2448 221.728 81.2775 221.714 81.2993C220.689 84.1371 219.274 87.0149 217.316 89.2931C217.277 89.3403 217.201 89.2786 217.232 89.2277Z" fill="#263238"/>
<path d="M219.442 80.6385C220.139 79.3704 220.836 78.135 221.501 76.8414C221.519 76.8051 221.568 76.8414 221.554 76.8705C221.018 78.2225 220.34 79.5082 219.532 80.7039C219.501 80.7693 219.4 80.7111 219.442 80.6385Z" fill="#263238"/>
<path d="M214.541 97.6905C214.506 99.414 214.309 101.13 213.956 102.814C213.984 102.999 214.008 103.177 214.036 103.373C214.543 101.514 214.838 99.5996 214.914 97.6687C214.929 97.6415 214.937 97.6108 214.937 97.5797C214.937 97.5485 214.929 97.5178 214.914 97.4906C214.985 94.898 214.801 92.3046 214.364 89.7512C213.607 84.9513 211.91 80.3803 208.728 76.8012C208.702 76.7783 208.671 76.7618 208.637 76.7532C208.604 76.7445 208.569 76.7438 208.536 76.7511C208.502 76.7585 208.471 76.7737 208.444 76.7956C208.417 76.8175 208.395 76.8455 208.379 76.8775C207.09 80.2967 207.539 84.3735 208.637 87.7782C209.231 89.6281 210.084 91.3766 211.168 92.9669C212.252 94.5765 213.649 95.9355 214.541 97.6905Z" fill="#9ECE66"/>
<path d="M209.077 78.41C212.109 83.5369 214.214 89.6122 214.472 95.6693C214.472 95.7747 214.305 95.8038 214.291 95.6948C214.218 95.1497 214.138 94.6047 214.054 94.0742C212.799 92.8243 211.513 91.5053 210.618 89.9392C210.616 89.9335 210.616 89.9275 210.618 89.9218C210.62 89.9162 210.623 89.9113 210.628 89.9077C210.632 89.9042 210.638 89.9021 210.643 89.9019C210.649 89.9017 210.655 89.9033 210.659 89.9065C211.705 91.2282 212.823 92.4851 214.009 93.6709C213.793 92.3337 213.534 91.016 213.232 89.7176C213.148 89.6195 213.071 89.5214 212.991 89.4233C212.911 89.3252 213.026 89.267 213.082 89.3288L213.155 89.4124C212.726 87.6347 212.197 85.8851 211.569 84.1728C210.799 83.2135 209.938 82.3851 209.373 81.2296C209.371 81.2239 209.371 81.2175 209.373 81.2116C209.374 81.2057 209.378 81.2008 209.383 81.1977C209.389 81.1945 209.395 81.1935 209.4 81.1947C209.406 81.1959 209.411 81.1993 209.415 81.2042C209.848 81.8741 210.313 82.5205 210.809 83.1409C211.011 83.3879 211.238 83.6132 211.447 83.8676C210.751 82.0094 209.923 80.2082 208.969 78.479C208.965 78.4647 208.966 78.4495 208.972 78.4358C208.977 78.4221 208.986 78.4105 208.998 78.4028C209.011 78.395 209.025 78.3915 209.039 78.3928C209.053 78.3941 209.066 78.4002 209.077 78.41Z" fill="#263238"/>
<path d="M209.705 84.7223C210.684 86.0958 211.796 87.4075 212.709 88.8282C212.737 88.8682 212.681 88.9118 212.646 88.8791C211.479 87.7345 210.489 86.1721 209.638 84.7623C209.614 84.7187 209.677 84.6823 209.705 84.7223Z" fill="#263238"/>
<path d="M212.848 89.1446L212.889 89.1882C212.917 89.2209 212.872 89.2681 212.844 89.2354L212.802 89.1918C212.796 89.1855 212.793 89.177 212.793 89.1682C212.793 89.1593 212.796 89.1508 212.802 89.1446C212.808 89.1383 212.817 89.1348 212.825 89.1348C212.834 89.1348 212.842 89.1383 212.848 89.1446Z" fill="#263238"/>
<path d="M204.347 88.2545C204.587 90.8924 205.919 94.0427 207.543 96.0739C208.257 96.9573 209.14 97.6752 210.136 98.1813C211.258 98.7627 212.433 99.4276 213.594 99.9036C214.145 101.369 214.556 102.888 214.82 104.438C214.859 104.307 214.894 104.169 214.932 104.039C214.186 97.3601 210.052 91.6555 204.741 87.9929C204.7 87.9638 204.651 87.948 204.602 87.9473C204.552 87.9466 204.503 87.961 204.461 87.9888C204.42 88.0166 204.386 88.0566 204.366 88.1038C204.346 88.151 204.339 88.2034 204.347 88.2545Z" fill="#9ECE66"/>
<path d="M206.178 90.2277C206.139 90.1914 206.178 90.1223 206.233 90.155C209.146 92.4124 211.468 95.3959 212.988 98.8319C213.026 98.9228 212.904 99.0027 212.856 98.9119C212.608 98.4613 212.357 98.0253 212.103 97.5965C210.893 97.3567 209.747 96.4701 208.847 95.6272C208.823 95.6054 208.847 95.569 208.882 95.5908C209.346 96.0297 209.861 96.4057 210.416 96.7099C210.907 96.9716 211.437 97.1351 211.953 97.3458C211.503 96.6191 211.036 95.8924 210.559 95.202C209.253 94.6836 208.028 93.966 206.923 93.0728C206.889 93.0437 206.923 92.9856 206.958 93.011C208.052 93.6994 209.179 94.3277 210.336 94.8932C209.599 93.8743 208.803 92.9035 207.952 91.9863C207.54 91.7611 207.122 91.5322 206.725 91.2887C206.717 91.2853 206.711 91.2788 206.707 91.2707C206.704 91.2625 206.704 91.2533 206.707 91.2451C206.711 91.2369 206.717 91.2304 206.725 91.227C206.732 91.2236 206.741 91.2236 206.749 91.2269C207.08 91.3474 207.396 91.5084 207.69 91.7066C207.199 91.2088 206.707 90.711 206.178 90.2277Z" fill="#263238"/>
<path d="M206.288 92.5314C206.36 92.5781 206.428 92.6291 206.494 92.684C206.515 92.7022 206.494 92.7276 206.47 92.7204C206.395 92.6845 206.324 92.642 206.257 92.5932C206.219 92.5823 206.253 92.5096 206.288 92.5314Z" fill="#263238"/>
<path d="M223.207 118.899H208.68L209.851 105.106L210.109 102.064H221.774L222.032 105.106L223.207 118.899Z" fill="#455A64"/>
<path d="M222.033 105.106H209.852L210.109 102.064H221.775L222.033 105.106Z" fill="#263238"/>
<path d="M222.47 99.9395H209.414V102.948H222.47V99.9395Z" fill="#455A64"/>
<path d="M1.80664 118.898L31.1463 118.808L60.4825 118.779L119.155 118.717L177.827 118.779L207.163 118.808L236.5 118.898L207.163 118.986L177.827 119.018L119.155 119.08L60.4825 119.018L31.1463 118.986L1.80664 118.898Z" fill="#263238"/>
<path d="M119.156 150.5C181.577 150.5 232.179 146.318 232.179 141.158C232.179 135.999 181.577 131.816 119.156 131.816C56.7349 131.816 6.13281 135.999 6.13281 141.158C6.13281 146.318 56.7349 150.5 119.156 150.5Z" fill="#EBEBEB"/>
<path d="M200.204 11.8848H38.1113V124.924H200.204V11.8848Z" fill="#EBEBEB"/>
<path d="M199.026 13.2656H39.2891V123.547H199.026V13.2656Z" fill="#263238"/>
<path d="M221.311 133.402H16.9961V141.16H221.311V133.402Z" fill="#DBDBDB"/>
<path d="M16.9961 133.401L38.1103 124.924H200.2L221.314 133.401H16.9961Z" fill="#EBEBEB"/>
<path d="M39.9961 130.392L53.6168 124.924H184.694L198.318 130.392H39.9961Z" fill="#263238"/>
<path d="M189.999 21.6445H48.3164V115.168H189.999V21.6445Z" fill="white"/>
<path d="M187.482 25.2422H48.1934V48.8421H187.482V25.2422Z" fill="#9ECE66"/>
<path d="M189.995 21.6445H48.1934V25.2417H189.995V21.6445Z" fill="#455A64"/>
<path d="M50.9374 23.4427C50.9374 23.6196 50.8871 23.7926 50.7927 23.9397C50.6983 24.0867 50.5642 24.2013 50.4074 24.2688C50.2505 24.3364 50.0779 24.3539 49.9115 24.3191C49.7451 24.2843 49.5923 24.1988 49.4725 24.0734C49.3528 23.9481 49.2714 23.7885 49.2387 23.6148C49.206 23.4412 49.2235 23.2614 49.2889 23.0981C49.3544 22.9348 49.4648 22.7955 49.6062 22.6977C49.7477 22.5999 49.9138 22.5481 50.0835 22.5488C50.196 22.5488 50.3073 22.572 50.4111 22.6169C50.5149 22.6619 50.6092 22.7278 50.6886 22.8109C50.7679 22.8939 50.8307 22.9925 50.8734 23.1009C50.9162 23.2093 50.9379 23.3255 50.9374 23.4427Z" fill="#C7C7C7"/>
<path d="M54.4335 23.4427C54.4335 23.6196 54.3832 23.7926 54.2888 23.9397C54.1944 24.0867 54.0603 24.2013 53.9034 24.2688C53.7466 24.3364 53.574 24.3539 53.4076 24.3191C53.2412 24.2843 53.0884 24.1988 52.9686 24.0734C52.8489 23.9481 52.7675 23.7885 52.7348 23.6148C52.7021 23.4412 52.7196 23.2614 52.785 23.0981C52.8505 22.9348 52.9609 22.7955 53.1023 22.6977C53.2438 22.5999 53.4099 22.5481 53.5796 22.5488C53.6921 22.5488 53.8034 22.572 53.9072 22.6169C54.011 22.6619 54.1053 22.7278 54.1847 22.8109C54.264 22.8939 54.3268 22.9925 54.3695 23.1009C54.4123 23.2093 54.434 23.3255 54.4335 23.4427Z" fill="white"/>
<path d="M57.9277 23.4427C57.9277 23.6196 57.8773 23.7926 57.7829 23.9397C57.6886 24.0867 57.5545 24.2013 57.3976 24.2688C57.2407 24.3364 57.0681 24.3539 56.9017 24.3191C56.7353 24.2843 56.5826 24.1988 56.4628 24.0734C56.343 23.9481 56.2616 23.7885 56.2289 23.6148C56.1963 23.4412 56.2137 23.2614 56.2792 23.0981C56.3446 22.9348 56.455 22.7955 56.5965 22.6977C56.7379 22.5999 56.9041 22.5481 57.0738 22.5488C57.1862 22.5488 57.2975 22.572 57.4014 22.6169C57.5052 22.6619 57.5995 22.7278 57.6788 22.8109C57.7582 22.8939 57.821 22.9925 57.8637 23.1009C57.9064 23.2093 57.9281 23.3255 57.9277 23.4427Z" fill="#9ECE66"/>
<path d="M189.999 25.2422H187.482V115.165H189.999V25.2422Z" fill="#DBDBDB"/>
<path d="M188.736 56.4171C188.564 56.4171 188.399 56.3459 188.278 56.2191C188.156 56.0924 188.088 55.9205 188.088 55.7412V26.4512C188.088 26.272 188.156 26.1001 188.278 25.9733C188.399 25.8466 188.564 25.7754 188.736 25.7754C188.908 25.7754 189.074 25.8465 189.196 25.9731C189.318 26.0998 189.387 26.2717 189.388 26.4512V55.7485C189.385 55.9268 189.315 56.0968 189.193 56.2219C189.071 56.347 188.907 56.4171 188.736 56.4171Z" fill="#A6A6A6"/>
<path d="M180.223 29.6309H146.359V34.3436H180.223V29.6309Z" fill="white"/>
<path d="M180.267 34.3909H146.312V29.5801H180.267V34.3909ZM146.403 34.2928H180.176V29.6782H146.403V34.2928Z" fill="#C7C7C7"/>
<path d="M180.271 29.5801H175.656V34.3909H180.271V29.5801Z" fill="#455A64"/>
<path d="M179.396 33.3048L178.978 33.6355L178.204 32.5708L177.922 32.182C177.98 32.1592 178.034 32.1273 178.082 32.0876C178.176 32.0108 178.25 31.9109 178.298 31.7969L178.598 32.2111L179.396 33.3048Z" fill="white"/>
<path d="M178.573 30.8127C178.441 30.6325 178.262 30.4954 178.058 30.4177C177.853 30.3399 177.632 30.3248 177.42 30.3741C177.207 30.4233 177.013 30.5349 176.859 30.6957C176.706 30.8564 176.6 31.0596 176.553 31.2812C176.507 31.5028 176.523 31.7336 176.598 31.9463C176.674 32.159 176.806 32.3447 176.98 32.4815C177.153 32.6183 177.36 32.7005 177.577 32.7184C177.794 32.7362 178.011 32.689 178.203 32.5823C178.259 32.5527 178.311 32.5174 178.36 32.4769C178.451 32.4052 178.531 32.3194 178.597 32.2225C178.738 32.0156 178.812 31.7671 178.807 31.5134C178.803 31.2598 178.721 31.0142 178.573 30.8127ZM178.081 32.099C178.033 32.1388 177.979 32.1706 177.921 32.1935C177.783 32.2488 177.631 32.2567 177.488 32.2162C177.346 32.1757 177.219 32.0889 177.126 31.9682C177.048 31.8976 176.986 31.8097 176.944 31.7108C176.902 31.612 176.882 31.5047 176.885 31.3967C176.888 31.2888 176.915 31.1829 176.962 31.0868C177.009 30.9907 177.076 30.9068 177.158 30.8412C177.241 30.7755 177.336 30.7298 177.437 30.7074C177.539 30.685 177.644 30.6864 177.744 30.7115C177.845 30.7366 177.939 30.7848 178.02 30.8526C178.1 30.9204 178.165 31.0061 178.21 31.1034C178.282 31.2033 178.327 31.3206 178.342 31.444C178.357 31.5674 178.342 31.6929 178.297 31.8083C178.248 31.9184 178.174 32.0144 178.081 32.0881V32.099Z" fill="white"/>
<path d="M147.547 30.5547H147.303V33.4143H147.547V30.5547Z" fill="#C7C7C7"/>
<path d="M144.662 29.6309H66.6699V34.3436H144.662V29.6309Z" fill="white"/>
<path d="M144.707 34.3909H66.6348V29.5801H144.707V34.3909ZM66.7149 34.2928H144.599V29.6782H66.7149V34.2928Z" fill="#C7C7C7"/>
<path d="M67.8573 30.5547H67.6133V33.4143H67.8573V30.5547Z" fill="#C7C7C7"/>
<path d="M101.23 82.7637H137.143V54.0369H101.23V82.7637Z" fill="#9ECE66"/>
<path opacity="0.6" d="M104.805 60.323C104.668 61.0388 104.756 61.7815 105.055 62.4412C105.355 63.101 105.85 63.6429 106.467 63.9868C107.085 64.3307 107.792 64.4583 108.485 64.3509C109.177 64.2435 109.818 63.9066 110.313 63.3902C110.808 62.8737 111.13 62.2051 111.232 61.483C111.334 60.7609 111.211 60.0238 110.88 59.3804C110.549 58.7371 110.029 58.2218 109.395 57.9106C108.762 57.5994 108.05 57.5088 107.363 57.6523C106.731 57.7843 106.151 58.1084 105.696 58.5837C105.241 59.059 104.931 59.6642 104.805 60.323Z" fill="white"/>
<path d="M113.076 76.576H137.143L125.111 61.1152L113.076 76.576Z" fill="#9ECE66"/>
<path opacity="0.2" d="M113.076 76.576H137.143L125.111 61.1152L113.076 76.576Z" fill="black"/>
<path d="M101.23 76.59H122.571L111.903 66.5215L101.23 76.59Z" fill="#9ECE66"/>
<path opacity="0.1" d="M101.23 76.59H122.571L111.903 66.5215L101.23 76.59Z" fill="black"/>
<path d="M137.144 76.5762H101.23V82.7641H137.144V76.5762Z" fill="#9ECE66"/>
<path opacity="0.1" d="M137.144 76.5762H101.23V82.7641H137.144V76.5762Z" fill="black"/>
<path d="M74.8667 86.7402H55.875V88.4044H74.8667V86.7402Z" fill="#A6A6A6"/>
<path d="M136.589 90.6055H55.875V92.2696H136.589V90.6055Z" fill="#EBEBEB"/>
<path d="M136.589 94.2676H55.875V95.9317H136.589V94.2676Z" fill="#EBEBEB"/>
<path d="M136.589 97.9336H55.875V99.5978H136.589V97.9336Z" fill="#EBEBEB"/>
<path d="M136.589 101.602H55.875V103.266H136.589V101.602Z" fill="#EBEBEB"/>
<path d="M136.589 105.264H55.875V106.928H136.589V105.264Z" fill="#EBEBEB"/>
<path d="M161.07 54.291H142.078V55.9552H161.07V54.291Z" fill="#A6A6A6"/>
<path d="M182.435 58.1543H142.078V59.8185H182.435V58.1543Z" fill="#EBEBEB"/>
<path d="M182.435 61.8203H142.078V63.4845H182.435V61.8203Z" fill="#EBEBEB"/>
<path d="M182.435 65.4824H142.078V67.1466H182.435V65.4824Z" fill="#EBEBEB"/>
<path d="M182.435 69.1504H142.078V70.8146H182.435V69.1504Z" fill="#EBEBEB"/>
<path d="M182.435 75.9434H142.078V77.6075H182.435V75.9434Z" fill="#EBEBEB"/>
<path d="M182.435 79.6113H142.078V81.2755H182.435V79.6113Z" fill="#EBEBEB"/>
<path d="M182.435 83.2773H142.078V84.9415H182.435V83.2773Z" fill="#EBEBEB"/>
<path d="M182.435 86.9395H142.078V88.6036H182.435V86.9395Z" fill="#EBEBEB"/>
<path d="M182.435 90.6055H142.078V92.2696H182.435V90.6055Z" fill="#EBEBEB"/>
<path d="M182.435 97.9336H142.078V99.5978H182.435V97.9336Z" fill="#EBEBEB"/>
<path d="M169.278 101.602H142.078V103.266H169.278V101.602Z" fill="#EBEBEB"/>
<path d="M170.264 100.551H170.09V104.315H170.264V100.551Z" fill="#263238"/>
<path d="M74.8667 54.041H55.875V58.4957H74.8667V54.041Z" fill="#A6A6A6"/>
<path d="M96.1691 61.5703H55.875V63.2345H96.1691V61.5703Z" fill="#EBEBEB"/>
<path d="M96.1691 65.2363H55.875V66.9005H96.1691V65.2363Z" fill="#EBEBEB"/>
<path d="M96.1691 68.8984H55.875V70.5626H96.1691V68.8984Z" fill="#EBEBEB"/>
<path d="M96.1691 72.5645H55.875V74.2286H96.1691V72.5645Z" fill="#EBEBEB"/>
<path d="M96.1691 77.4375H55.875V79.1017H96.1691V77.4375Z" fill="#EBEBEB"/>
<path d="M96.1691 81.1035H55.875V82.7677H96.1691V81.1035Z" fill="#EBEBEB"/>
<path d="M129.128 146.166C129.128 146.166 121.112 146.751 121.16 141.013C121.209 135.276 129.236 136.046 129.236 136.046L129.128 146.166Z" fill="#9ECE66"/>
<path d="M192.439 140.6L192.411 143.111L185.377 146.832L153.661 146.468L133.243 146.229L130.995 146.203H130.758H129.092H128.807L128.918 136.08H129.239L130.866 136.098H131.103L133.352 136.124L185.496 136.741L192.428 140.629L192.439 140.6Z" fill="#9ECE66"/>
<path d="M193.993 141.871L192.418 142.718H192.414L192.435 141.01L193.38 141.529L193.993 141.871Z" fill="#455A64"/>
<path d="M128.634 135.204L128.506 147.02L130.754 147.046L130.882 135.231L128.634 135.204Z" fill="#263238"/>
<path d="M130.936 135.024L130.822 146.84L133.07 146.863L133.184 135.047L130.936 135.024Z" fill="#263238"/>
<path d="M133.23 147.064L133.272 143.252L153.717 145.596L153.623 146.998L133.23 147.064Z" fill="#263238"/>
<path d="M79.6455 75.5946C81.6217 78.0945 83.1901 92.2689 80.6911 97.8028C78.1921 103.337 67.4468 104.507 65.129 97.385C63.9126 93.6787 66.9762 89.5365 68.4018 79.7223C69.4578 72.408 76.8816 72.1064 79.6455 75.5946Z" fill="#263238"/>
<path d="M78.4463 99.849C79.3041 99.3535 80.0593 98.6858 80.6683 97.8844C81.2773 97.083 81.728 96.1638 81.9944 95.1799C82.5625 93.0506 82.4824 90.6888 82.3813 88.5014C82.1522 84.1018 81.24 79.7701 79.6802 75.675C79.6802 75.675 79.6976 75.646 79.7046 75.675C81.4609 79.973 82.4371 84.5734 82.5835 89.2427C82.6566 91.4555 82.7124 93.9154 81.8864 95.9974C81.2138 97.6727 80.0023 99.0513 78.4603 99.8962C78.4463 99.8962 78.4254 99.849 78.4463 99.849Z" fill="#263238"/>
<path d="M65.2796 89.1731C65.886 87.8287 66.6075 86.546 67.0222 85.1181C67.437 83.6901 67.6147 82.3021 67.8971 80.8886C68.3258 78.7085 69.0647 76.5284 70.8178 75.1367C69.0298 76.6265 68.4094 78.9592 67.9912 81.2047C67.7611 82.4329 67.5834 83.6755 67.2523 84.8782C66.9272 85.9579 66.5071 87.004 65.9975 88.0031C64.8369 90.4085 63.9307 92.8866 64.4605 95.6335C64.6689 96.7553 65.1304 97.8092 65.8067 98.7082C66.483 99.6073 67.3549 100.326 68.3502 100.804C68.4129 100.833 68.3676 100.949 68.3049 100.924C67.4032 100.511 66.5976 99.8992 65.9432 99.1317C65.2888 98.3642 64.8009 97.4585 64.5128 96.4765C63.7774 94.0348 64.2514 91.4513 65.2796 89.1731Z" fill="#263238"/>
<path d="M66.0491 89.2856C66.589 88.0217 66.9935 86.6996 67.2551 85.3432C67.4886 84.046 67.6036 82.7343 67.8197 81.4335C68.1682 79.2098 68.8374 76.9243 70.5278 75.3691C70.5487 75.3691 70.5801 75.3691 70.5592 75.4018C68.9664 77.0406 68.3146 79.2461 67.9661 81.4735C67.5897 83.8753 67.4015 86.2443 66.5266 88.5298C65.6762 90.7499 64.4912 92.9809 64.6097 95.4336C64.7282 97.8862 66.2931 99.7066 68.2101 100.949C68.2167 100.956 68.221 100.965 68.2222 100.975C68.2234 100.985 68.2214 100.994 68.2166 101.003C68.2117 101.011 68.2043 101.018 68.1956 101.021C68.1868 101.025 68.1772 101.025 68.1682 101.022C66.4744 100.008 65 98.3985 64.5713 96.3928C64.0451 93.9256 65.1325 91.513 66.0491 89.2856Z" fill="#263238"/>
<path d="M150.04 130.135C149.214 130.465 125.221 130.923 124.28 130.363C124.179 130.298 124.206 129.193 123.854 126.338C123.837 126.203 123.29 125.673 122.432 124.924C119.226 122.123 111.684 116.204 111.684 116.204L123.659 105.357L135.262 117.25L138.28 120.339C138.28 120.339 148.085 125.858 149.057 126.588C150.029 127.319 150.873 129.804 150.04 130.135Z" fill="#D3766A"/>
<path d="M150.039 130.134C149.216 130.468 125.216 130.919 124.279 130.363C124.174 130.297 124.206 129.193 123.854 126.34C126.799 127.158 144.821 127.659 146.198 126.424C147.118 125.599 143.57 123.375 142.117 122.521C144.982 124.149 148.495 126.173 149.056 126.595C150.018 127.325 150.872 129.803 150.039 130.134Z" fill="#9ECE66"/>
<path d="M135.428 116.591L120.626 124.585C120.626 124.585 105.207 110.051 103.792 109.923C102.377 109.796 81.6355 124.494 71.1899 124.556C60.3854 124.603 59.8242 112.787 59.8242 112.787L75.6059 109.008C86.9786 103.165 98.8288 92.6568 106.577 93.6451C114.994 94.6952 135.428 116.591 135.428 116.591Z" fill="#455A64"/>
<path d="M131.811 114.553C129.316 115.843 130.016 115.44 127.528 116.755C126.311 117.398 120.208 120.617 119.163 121.413C119.158 121.417 119.154 121.423 119.153 121.43C119.152 121.436 119.152 121.443 119.155 121.449C119.158 121.455 119.163 121.46 119.169 121.462C119.175 121.465 119.181 121.466 119.187 121.464C120.411 121.035 126.465 117.681 127.671 117.013C130.131 115.65 129.413 116.014 131.853 114.626C131.862 114.62 131.869 114.61 131.872 114.6C131.874 114.589 131.872 114.577 131.867 114.567C131.861 114.558 131.852 114.551 131.842 114.548C131.831 114.545 131.82 114.547 131.811 114.553Z" fill="#263238"/>
<path d="M118.004 120.901C115.108 118.241 105.628 109.582 105.244 109.273C104.945 108.977 104.613 108.718 104.255 108.503C104.107 108.443 103.948 108.418 103.79 108.431C103.631 108.444 103.478 108.495 103.341 108.579C102.906 108.79 102.474 109.026 102.041 109.248L99.4762 110.552C96.1582 112.238 92.854 113.971 89.5186 115.603C86.3051 117.173 84.0117 118.648 80.6553 119.858C77.3182 121.079 73.8674 121.931 70.3596 122.401C69.9274 122.456 69.4917 122.503 69.0596 122.547C69.0531 122.547 69.0469 122.549 69.0423 122.554C69.0377 122.559 69.0352 122.565 69.0352 122.572C69.0352 122.579 69.0377 122.585 69.0423 122.59C69.0469 122.595 69.0531 122.597 69.0596 122.597C72.5035 122.386 75.9084 121.725 79.195 120.632C82.52 119.567 84.7715 118.183 87.9327 116.667C91.2055 115.098 94.4329 113.419 97.6569 111.748C99.3612 110.865 101.062 109.974 102.77 109.102C103.157 108.903 103.707 108.474 104.164 108.688C104.351 108.793 104.522 108.925 104.673 109.081L105.241 109.571C105.976 110.207 117.597 120.643 117.976 120.944C117.994 120.966 118.032 120.922 118.004 120.901Z" fill="#263238"/>
<path d="M59.7962 112.773C59.7962 112.773 58.0256 123.441 63.1421 127.634C68.2586 131.828 105.747 131.319 111.435 129.404C117.123 127.489 117.304 117.918 111.087 115.698C105.162 113.591 80.0112 112.566 79.3908 112.308C79.234 112.243 81.6215 110.749 81.611 110.659L75.8846 108.842L59.7962 112.773Z" fill="#455A64"/>
<path d="M67.5722 112.505C67.5722 112.458 67.499 112.472 67.499 112.505C67.4981 113.745 67.0786 114.945 66.314 115.895C65.4426 116.945 64.16 117.53 62.9959 118.144C62.8844 118.202 62.968 118.388 63.083 118.351C63.7987 118.121 64.4882 117.81 65.1394 117.425C65.7371 117.095 66.2628 116.64 66.6834 116.088C67.0612 115.587 67.3353 115.01 67.4883 114.393C67.6413 113.777 67.6698 113.134 67.5722 112.505Z" fill="#263238"/>
<path d="M78.9755 111.182C78.7141 110.837 78.4318 110.506 78.1599 110.172C77.5186 109.376 76.8773 108.577 76.2046 107.81C76.1419 107.737 76.0164 107.839 76.0757 107.919C76.5253 108.537 77.0062 109.133 77.4698 109.736C77.7103 110.045 77.9543 110.35 78.1982 110.655C78.4517 110.932 78.6792 111.234 78.8779 111.556C79.0521 111.898 78.8221 112.188 78.4805 112.225C78.1801 112.235 77.8878 112.123 77.665 111.912C77.1546 111.443 76.6878 110.925 76.2708 110.364C76.0025 110.048 75.7306 109.732 75.4588 109.42C75.1869 109.107 74.8558 108.773 74.5665 108.439C74.5456 108.42 74.5107 108.439 74.5282 108.471C74.7826 108.835 75.0161 109.198 75.2705 109.561C75.525 109.925 75.7829 110.288 76.0443 110.651C76.3057 111.015 76.5497 111.32 76.8146 111.643C77.0354 111.928 77.299 112.174 77.5953 112.37C78.0832 112.668 78.9267 112.734 79.1881 112.079C79.2307 111.924 79.2336 111.759 79.1963 111.601C79.159 111.444 79.0829 111.299 78.9755 111.182Z" fill="#263238"/>
<path d="M110.659 129.437C108.7 129.477 106.744 129.597 104.786 129.641C102.827 129.684 100.9 129.695 98.9547 129.674C95.0534 129.637 91.1545 129.48 87.2579 129.201C83.3229 128.918 79.0812 128.507 75.1707 127.944C73.3025 127.675 71.4065 127.45 69.5558 127.036C67.8949 126.705 66.3591 125.887 65.1294 124.677C62.599 122.116 61.6127 118.355 61.2084 114.758C61.1549 114.273 61.1096 113.789 61.0724 113.304C61.0739 113.301 61.0745 113.296 61.074 113.292C61.0736 113.288 61.0722 113.284 61.07 113.281C61.0678 113.277 61.0647 113.274 61.0612 113.272C61.0577 113.271 61.0538 113.27 61.0498 113.27C61.0458 113.27 61.0419 113.271 61.0384 113.272C61.0348 113.274 61.0318 113.277 61.0296 113.281C61.0273 113.284 61.026 113.288 61.0255 113.292C61.0251 113.296 61.0257 113.301 61.0271 113.304C61.2537 116.989 61.8044 120.833 64.028 123.798C64.9652 125.094 66.2146 126.108 67.6493 126.738C69.392 127.464 71.3438 127.639 73.191 127.9C77.1155 128.456 81.3746 128.885 85.3235 129.205C89.2724 129.525 93.2771 129.724 97.2573 129.786C101.238 129.848 105.228 129.786 109.205 129.583C109.688 129.561 110.173 129.528 110.659 129.485C110.663 129.483 110.667 129.479 110.67 129.475C110.672 129.471 110.674 129.466 110.674 129.461C110.674 129.456 110.672 129.451 110.67 129.447C110.667 129.442 110.663 129.439 110.659 129.437Z" fill="#263238"/>
<path d="M98.3097 113.754C97.0794 113.565 95.849 113.391 94.6082 113.249C93.3675 113.107 92.1023 112.995 90.8476 112.886C88.3695 112.664 85.8809 112.468 83.3959 112.348C81.9808 112.279 80.5693 112.272 79.1577 112.29C79.1124 112.29 79.1159 112.359 79.1577 112.362C81.6427 112.595 84.1313 112.758 86.6233 112.933C89.1153 113.107 91.5899 113.333 94.068 113.58C95.4622 113.718 96.8842 113.827 98.2923 113.943C98.3933 113.954 98.4142 113.772 98.3097 113.754Z" fill="#263238"/>
<path d="M81.9013 110.527C80.9088 110.975 79.9539 111.508 79.0468 112.122C78.1235 112.698 77.2407 113.341 76.4049 114.048C76.384 114.07 76.4049 114.099 76.4363 114.088C77.4052 113.619 78.3358 113.038 79.2594 112.478C80.1939 111.929 81.0959 111.323 81.9606 110.661C82.0198 110.618 81.9849 110.494 81.9013 110.527Z" fill="#263238"/>
<path d="M71.3129 91.4578C73.2124 98.1835 76.8023 106.166 78.2069 107.413C79.9844 108.982 91.2805 111.359 91.8381 111.384C93.2323 111.442 95.3723 100.967 93.8945 100.847C91.6499 100.654 83.5325 100.709 83.0167 100.218C82.5009 99.7278 78.8064 95.4366 75.0004 90.5858C72.369 87.2211 70.1348 87.2829 71.3129 91.4578Z" fill="#D3766A"/>
<path d="M90.7051 110.901C92.0106 111.495 93.3546 111.993 94.7272 112.391C95.8181 112.645 98.9758 113.296 99.3662 112.071C99.6311 111.235 97.8187 110.618 96.5466 110.167C95.8739 109.924 95.0269 109.262 95.1942 108.812C95.487 108.023 97.2157 108.685 98.3624 109.288C100.579 110.447 103.57 112.602 104.81 111.388C105.281 110.927 104.66 110.185 103.765 109.473C105.18 110.276 106.678 110.927 107.219 110.429C107.358 110.303 107.446 110.126 107.464 109.935C107.482 109.744 107.429 109.552 107.316 109.4C107.493 109.474 107.687 109.491 107.874 109.449C108.06 109.407 108.23 109.308 108.362 109.164C108.777 108.652 108.522 107.951 107.992 107.249C108.076 107.236 108.154 107.201 108.222 107.148C108.289 107.096 108.343 107.027 108.379 106.948C109.23 105.4 104.284 101.414 102.639 101.116C99.3739 100.589 96.0598 100.474 92.7684 100.774C90.9874 102.457 90.7016 110.897 90.7051 110.901Z" fill="#D3766A"/>
<path d="M97.4625 105.869C98.6118 105.987 99.7239 106.359 100.725 106.959C101.986 107.719 102.847 108.642 103.921 109.561C103.927 109.566 103.931 109.573 103.932 109.581C103.933 109.588 103.931 109.596 103.926 109.603C103.921 109.609 103.915 109.613 103.907 109.614C103.9 109.615 103.892 109.613 103.886 109.608C103.374 109.172 101.265 107.541 100.721 107.177C99.7412 106.499 98.6253 106.064 97.459 105.905L97.4625 105.869Z" fill="#263238"/>
<path d="M98.2434 103.7C99.5387 103.927 100.808 104.292 102.032 104.79C103.346 105.386 104.409 106.428 105.451 107.428C106.079 108.031 106.695 108.645 107.295 109.273C107.319 109.299 107.295 109.346 107.26 109.321C106.198 108.284 105.108 107.282 103.991 106.316C102.958 105.412 101.764 104.73 100.478 104.31C99.7421 104.07 98.9928 103.889 98.24 103.707C98.2121 103.718 98.2156 103.696 98.2434 103.7Z" fill="#263238"/>
<path d="M99.4634 101.766C100.701 101.948 101.778 102.104 102.896 102.718C104.165 103.48 105.336 104.405 106.382 105.473C106.95 106.032 107.501 106.614 108.044 107.202C108.065 107.228 108.027 107.268 108.006 107.246C106.766 105.955 105.447 104.75 104.057 103.638C103.404 103.096 102.674 102.664 101.893 102.359C101.105 102.091 100.297 101.895 99.4773 101.774C99.4773 101.774 99.4599 101.763 99.4634 101.766Z" fill="#263238"/>
<path d="M91.9698 100.401L89.2094 111.909C89.2094 111.909 79.799 109.728 77.9901 107.948C76.1812 106.168 72.4937 96.5315 71.2982 91.8296C70.1027 87.1278 72.417 87.106 74.7138 89.9656C77.0107 92.8252 82.7301 99.7762 83.0229 99.9107C83.3157 100.045 91.9698 100.401 91.9698 100.401Z" fill="#9ECE66"/>
<path d="M88.0381 106.948C88.3867 105.593 88.7352 104.237 89.0106 102.868C89.1744 102.086 89.3417 101.309 89.4985 100.528C89.4985 100.498 89.4567 100.484 89.4497 100.528C89.0593 101.876 88.6725 103.231 88.3414 104.597C88.0103 105.963 87.6722 107.315 87.362 108.678C87.1842 109.455 87.0309 110.233 86.8984 111.021C86.8984 111.021 86.9193 111.043 86.9263 111.021C87.3585 109.677 87.7001 108.314 88.0381 106.948Z" fill="#263238"/>
<path d="M88.0733 100.32C88.0773 100.579 88.0621 100.837 88.028 101.094C87.9897 101.349 87.9303 101.601 87.8502 101.846C87.6863 102.336 87.4448 102.794 87.1357 103.201C86.8308 103.615 86.4384 103.949 85.989 104.179C85.5402 104.4 85.06 104.545 84.567 104.607C84.1512 104.666 83.7317 104.69 83.3123 104.68H83.0857C82.5943 104.68 82.1029 104.626 81.6114 104.582C80.6337 104.462 79.6507 104.394 78.6663 104.379C78.1765 104.379 77.6888 104.447 77.2164 104.582C76.8624 104.685 76.5326 104.863 76.2475 105.105L76.2266 105.062C76.5141 104.819 76.8461 104.639 77.2025 104.535C77.679 104.396 78.1715 104.325 78.6663 104.324C79.6518 104.335 80.6361 104.4 81.6149 104.52C82.1063 104.564 82.5978 104.604 83.0892 104.615H83.3924C83.7817 104.618 84.1708 104.593 84.5566 104.538C85.0402 104.476 85.5109 104.332 85.9507 104.113C86.3983 103.893 86.789 103.564 87.0904 103.154C87.3909 102.752 87.6264 102.302 87.7875 101.821C87.9443 101.338 88.0186 100.83 88.007 100.32C88.0088 100.288 88.0088 100.257 88.007 100.225H88.0837C88.0821 100.257 88.0786 100.289 88.0733 100.32ZM85.1351 100.098V100.08H85.0654C85.0671 100.088 85.0671 100.097 85.0654 100.106C85.0987 100.615 85.0671 101.127 84.9713 101.628C84.7552 102.629 84.2886 103.553 83.619 104.306C83.5184 104.416 83.4126 104.52 83.3018 104.618C83.2778 104.642 83.2522 104.664 83.2251 104.684C82.9853 104.89 82.7261 105.07 82.4514 105.222C82.0139 105.455 81.555 105.643 81.0817 105.781C80.1206 106.01 79.1771 106.313 78.2585 106.686C77.9593 106.827 77.6744 106.998 77.4081 107.198C77.4177 107.209 77.4259 107.221 77.4325 107.235C77.6974 107.036 77.9812 106.867 78.2794 106.729C79.1958 106.359 80.1371 106.059 81.0956 105.832C81.5769 105.694 82.0439 105.507 82.4897 105.272C82.7884 105.111 83.068 104.913 83.3227 104.684C83.3517 104.665 83.3786 104.643 83.4029 104.618C83.4982 104.531 83.5888 104.44 83.6748 104.346C84.0159 103.971 84.3046 103.548 84.5322 103.089C84.7689 102.632 84.9414 102.143 85.0445 101.635C85.1421 101.13 85.1726 100.612 85.1351 100.098Z" fill="white"/>
<path opacity="0.1" d="M89.4947 110.75L89.2194 111.894C89.2194 111.894 79.8089 109.714 78 107.934C76.1911 106.153 72.5036 96.5172 71.3082 91.8154C70.4333 88.378 71.4371 87.4369 72.9358 88.3017C77.1078 93.861 84.9742 104.38 89.4947 110.75Z" fill="black"/>
<path d="M58.9746 113.899C59.6717 114.175 80.169 109.146 80.169 109.146L78.1371 101.709C78.1371 101.709 79.4301 99.4194 78.991 97.1267C78.4089 94.0672 73.282 88.8167 72.8777 88.5042C71.2396 87.2434 69.7409 87 68.3153 87.7012C62.3171 90.6299 58.9746 113.899 58.9746 113.899Z" fill="#9ECE66"/>
<path d="M78.2273 95.1896L78.2586 95.2514H78.1088H78.0286C77.8847 95.2423 77.7403 95.2423 77.5964 95.2514C77.1061 95.283 76.6227 95.387 76.1604 95.5602C75.6963 95.7219 75.2571 95.9533 74.8569 96.247C74.4571 96.5445 74.0973 96.8964 73.7869 97.2934C73.479 97.6919 73.1994 98.1133 72.9504 98.5543C72.696 98.9903 72.4555 99.4408 72.1976 99.8769C71.9429 100.32 71.6501 100.739 71.3228 101.127C71.1556 101.317 70.9751 101.495 70.7826 101.657C70.5883 101.82 70.3794 101.962 70.1587 102.082C69.7225 102.322 69.2515 102.485 68.7645 102.566C68.271 102.65 67.7653 102.616 67.2867 102.464C66.8131 102.308 66.3669 102.072 65.9658 101.766C65.627 101.513 65.3066 101.233 65.0073 100.931L64.9446 100.865L64.84 100.763C64.4915 100.4 64.143 100.037 63.8258 99.6407C63.3832 99.1284 62.9545 98.6051 62.4979 98.1073C62.5053 98.086 62.5111 98.0642 62.5153 98.0419C62.9823 98.547 63.4215 99.0775 63.8711 99.5971C64.1987 99.9786 64.5333 100.357 64.8819 100.716L65.0387 100.869L65.1014 100.934C65.3845 101.214 65.6862 101.473 66.0041 101.708C66.3999 102.01 66.8402 102.241 67.3077 102.395C67.7752 102.542 68.2691 102.575 68.7506 102.489C69.2371 102.411 69.7081 102.25 70.1447 102.013C70.574 101.769 70.9605 101.451 71.2879 101.072C71.6137 100.69 71.9042 100.276 72.1558 99.8369C72.4137 99.4009 72.6542 98.9539 72.9121 98.5143C73.1631 98.0709 73.4462 97.6482 73.759 97.2498C74.0711 96.8486 74.4347 96.494 74.8395 96.1961C75.6647 95.6049 76.6284 95.2583 77.6278 95.1932C77.7533 95.1932 77.8787 95.1932 78.0042 95.1932H78.1018L78.2273 95.1896ZM78.419 95.553L78.2133 95.3349L78.1088 95.2296L78.0495 95.1678C77.7499 94.8639 77.4283 94.5845 77.0876 94.3321C76.6869 94.0256 76.2406 93.7899 75.7666 93.6344C75.2883 93.481 74.7823 93.4462 74.2888 93.5327C73.8024 93.6133 73.3316 93.7753 72.8947 94.0123C72.6755 94.1352 72.4667 94.2775 72.2708 94.4375C72.0782 94.6012 71.8977 94.7798 71.7306 94.9716C71.4033 95.3585 71.1105 95.7756 70.8557 96.2179C70.5978 96.6576 70.3573 97.1045 70.1029 97.5441C69.8534 97.9848 69.5739 98.4062 69.2664 98.805C68.9555 99.199 68.597 99.5495 68.1999 99.8478C67.7975 100.141 67.3575 100.373 66.8929 100.538C66.4305 100.71 65.947 100.813 65.4569 100.843C65.3119 100.854 65.1663 100.854 65.0213 100.843C64.99 100.847 64.9584 100.847 64.9272 100.843C64.615 100.824 64.3056 100.772 64.0035 100.687C63.5324 100.546 63.0759 100.356 62.6408 100.12C62.4212 100.004 62.2016 99.8841 61.9855 99.757C61.984 99.7739 61.984 99.7909 61.9855 99.8078C62.1981 99.9277 62.4142 100.051 62.6303 100.171C63.0679 100.411 63.5281 100.604 64.0035 100.745C64.3305 100.837 64.6658 100.893 65.0038 100.912H65.0979C65.2234 100.912 65.3489 100.912 65.4744 100.912C65.9701 100.879 66.4591 100.775 66.9278 100.604C67.3974 100.439 67.8422 100.205 68.2487 99.9096C68.6522 99.6087 69.0166 99.2545 69.3327 98.8558C69.6432 98.4553 69.9251 98.0314 70.1761 97.5877C70.434 97.1481 70.6745 96.7012 70.9324 96.2651C71.1872 95.8281 71.4775 95.4148 71.8003 95.0297C72.1292 94.6522 72.5169 94.3353 72.947 94.0923C73.3833 93.8538 73.8543 93.6918 74.3411 93.6126C74.823 93.5305 75.3165 93.5641 75.784 93.7107C76.2511 93.8635 76.6913 94.0942 77.0876 94.3939C77.4056 94.6307 77.7072 94.8905 77.9903 95.1714L78.0495 95.2332L78.2098 95.3895C78.3248 95.5057 78.4364 95.6256 78.5584 95.7528C78.534 95.691 78.5026 95.6293 78.4747 95.5711L78.419 95.553Z" fill="white"/>
<path d="M75.5194 91.28C76.0109 91.9413 76.5406 92.5699 77.046 93.2167C76.8195 92.7407 76.5929 92.2684 76.349 91.8033C76.7181 92.3546 77.0345 92.9425 77.2935 93.5583C77.6742 94.0472 78.0235 94.5619 78.3391 95.0989C78.7258 95.7395 79.0029 96.4452 79.1581 97.1845C79.2895 97.9334 79.2741 98.7022 79.1128 99.4446C78.9165 100.295 78.6471 101.126 78.3077 101.926C78.2659 102.035 78.1195 101.959 78.1544 101.854C78.604 100.444 79.1059 98.9468 78.8724 97.4534C78.6388 95.96 77.8267 94.6701 77.0181 93.4565C76.5474 92.7133 76.0317 92.0021 75.4741 91.3273C75.4532 91.2873 75.4985 91.251 75.5194 91.28Z" fill="#263238"/>
<path d="M66.3428 89.05C62.2545 92.3201 51.4743 105.593 53.7258 108.74C55.9774 111.887 71.4244 110.84 75.931 109.467C77.2728 109.064 73.8398 100.172 72.4003 99.7326C71.2118 99.3692 64.5234 101.259 64.4049 100.852C64.2864 100.445 65.7468 97.458 68.1377 92.084C70.8912 85.9069 68.1517 87.6038 66.3428 89.05Z" fill="#D3766A"/>
<path d="M78.9902 98.2057C82.0783 98.2893 82.859 98.8053 85.5009 97.4318C87.2435 96.5307 88.5331 97.2974 87.3551 99.0015C85.4277 101.792 81.43 102.559 79.9557 102.406L78.9902 98.2057Z" fill="#D3766A"/>
<path d="M70.4863 99.8487C70.4863 99.8487 74.1913 98.468 77.4919 98.2172C79.7748 98.0428 84.7797 98.2427 88.6729 104.096C89.5965 105.484 89.9659 108.144 87.6691 106.447C86.038 105.241 85.3513 103.966 84.2813 103.442C84.2813 103.442 84.365 106.887 82.9952 107.803C81.7973 108.598 80.5463 109.304 79.252 109.914C79.0906 109.692 78.9428 109.46 78.8093 109.22C78.8093 109.22 77.4535 109.946 75.2125 109.325L70.4863 99.8487Z" fill="#D3766A"/>
<path d="M79.6958 98.4199C80.6577 99.1721 82.6618 100.8 83.8782 102.726C85.2061 104.869 87.2137 109.364 85.6906 110.356C84.5718 111.083 83.6586 109.448 83.6586 109.448C83.6586 109.448 84.1117 111.49 82.9616 111.926C81.916 112.325 81.2816 111.007 81.2816 111.007C81.2816 111.007 81.3548 112.293 80.2709 112.46C78.9708 112.678 79.0371 109.942 77.5384 108.975C77.1829 108.79 79.6958 98.4199 79.6958 98.4199Z" fill="#D3766A"/>
<path d="M81.4545 103.816C82.7209 105.406 83.4918 107.361 83.6642 109.419C83.6642 109.47 83.6294 109.499 83.6189 109.452C83.1109 107.498 82.3771 105.615 81.4336 103.845L81.4545 103.816Z" fill="#263238"/>
<path d="M79.4233 105.278C80.0297 106.095 81.2775 108.668 81.3053 111.008C81.3053 111.059 81.267 111.088 81.26 111.04C80.85 109.06 80.2268 107.134 79.4023 105.299C79.4023 105.299 79.4233 105.267 79.4233 105.278Z" fill="#263238"/>
<path d="M84.3018 103.432C85.2359 103.901 85.797 104.522 86.5324 105.249C86.8911 105.624 87.2705 105.977 87.6686 106.306C88.0172 106.601 88.5679 107.033 89.0628 106.764C89.1799 106.672 89.2709 106.548 89.3261 106.406C89.3814 106.264 89.3987 106.109 89.3765 105.957C89.3262 105.52 89.2085 105.095 89.0279 104.697C89.0279 104.697 89.0454 104.667 89.0523 104.697C89.2343 105.061 89.378 105.445 89.481 105.841C89.5471 106.11 89.5337 106.394 89.4427 106.655C89.2092 107.196 88.5574 107.16 88.1287 106.928C87.8739 106.778 87.6344 106.601 87.4142 106.401C87.1981 106.219 86.9925 106.037 86.7903 105.823C86.3721 105.412 85.9817 104.98 85.5705 104.562C85.1671 104.173 84.7423 103.809 84.2983 103.472C84.246 103.45 84.2635 103.421 84.3018 103.432Z" fill="#263238"/>
<path d="M85.7728 107.394C85.3494 106.047 84.8442 104.729 84.2602 103.448C84.2602 103.448 84.2602 103.419 84.2846 103.448C85.0155 104.638 85.6009 105.919 86.0273 107.26C86.2632 107.989 86.3545 108.76 86.2956 109.527C86.1248 110.599 85.4103 110.686 85.1524 110.694C84.8434 110.695 84.5433 110.586 84.302 110.385C84.0212 110.132 83.7934 109.822 83.6328 109.473C83.6328 109.455 83.6328 109.44 83.6572 109.455C83.9465 109.938 84.4728 110.458 85.0514 110.479C85.1777 110.488 85.3045 110.471 85.4242 110.428C85.544 110.385 85.6542 110.317 85.7484 110.229C85.9413 109.998 86.0488 109.703 86.0516 109.397C86.0682 108.718 85.9739 108.041 85.7728 107.394Z" fill="#263238"/>
<path d="M70.4863 99.8489L73.5883 111.113C73.5883 111.113 54.276 112.261 53.206 108.606C52.136 104.95 61.4662 92.9815 65.3385 89.6823C69.8206 85.8707 70.0611 87.4731 68.6042 91.2847C67.0742 95.2816 64.4427 100.975 64.4427 100.975L70.4863 99.8489Z" fill="#9ECE66"/>
<path d="M65.327 99.0275L65.2956 99.1002C65.1795 99.1076 65.0631 99.1076 64.9471 99.1002C64.4516 99.056 63.9664 98.9271 63.5111 98.7187C63.127 98.5472 62.7554 98.3469 62.3993 98.1191L62.3226 98.0719L62.2041 97.9956C61.7858 97.7231 61.3815 97.4287 60.9807 97.1272C60.5137 96.7638 60.0501 96.4186 59.5866 96.0771L59.6214 96.0335C60.0955 96.3714 60.559 96.7311 61.0156 97.0763C61.4164 97.3742 61.8207 97.6686 62.2355 97.9374L62.4202 98.0537L62.4969 98.1009C62.8317 98.3131 63.1812 98.4989 63.5425 98.6569C63.9924 98.8562 64.4702 98.9789 64.9575 99.0202C65.0804 99.0298 65.2038 99.0322 65.327 99.0275ZM68.171 90.1544C68.015 90.3565 67.8751 90.5716 67.7528 90.7975C67.5127 91.248 67.3143 91.7213 67.1603 92.211C66.9964 92.6979 66.857 93.192 66.7002 93.6644C66.5484 94.1518 66.362 94.6266 66.1425 95.0851C65.9223 95.541 65.6458 95.9649 65.32 96.3459C64.9883 96.7225 64.6069 97.0479 64.1872 97.3125C63.7723 97.5844 63.323 97.7948 62.8524 97.9374C62.7118 97.9805 62.5686 98.0133 62.4237 98.0355C62.3912 98.039 62.3585 98.039 62.3261 98.0355C62.0198 98.0882 61.709 98.1064 61.399 98.09C60.909 98.0601 60.4232 97.9786 59.9491 97.8466C59.4716 97.7194 58.9976 97.5668 58.5236 97.436L58.4922 97.476C58.9732 97.6141 59.4507 97.7703 59.9351 97.8975C60.4124 98.0324 60.9018 98.1152 61.3955 98.1445C61.7324 98.1623 62.0702 98.1416 62.4028 98.0828L62.5003 98.0646C62.6238 98.0425 62.7459 98.0134 62.8663 97.9774C63.8219 97.6844 64.6848 97.1298 65.3653 96.3714C65.6978 95.9887 65.9792 95.5609 66.2018 95.0996C66.4223 94.6383 66.611 94.1611 66.7664 93.6717C66.9233 93.1848 67.0662 92.6906 67.23 92.2182C67.383 91.7334 67.5803 91.265 67.819 90.8193C68.0593 90.3753 68.3705 89.9771 68.7391 89.6421C68.9015 89.4964 69.0752 89.3652 69.2584 89.2496C69.2584 89.2097 69.2584 89.177 69.2828 89.1406C69.0734 89.2688 68.8751 89.4159 68.6903 89.5803C68.5018 89.7558 68.328 89.9479 68.171 90.1544ZM69.9311 99.965H69.9067C69.9346 100.189 69.9486 100.415 69.9485 100.641C69.9485 100.783 69.9485 100.921 69.9485 101.062C69.9485 101.062 69.9485 101.095 69.9485 101.113C69.9214 101.467 69.8642 101.817 69.7778 102.16C69.6569 102.656 69.4704 103.133 69.2236 103.577C68.9739 104.018 68.6613 104.418 68.2965 104.761C67.5333 105.408 66.7274 105.998 65.8846 106.527C65.4725 106.811 65.0894 107.139 64.7414 107.505C64.5058 107.757 64.2967 108.035 64.1175 108.333L64.0653 108.424C64.0025 108.536 63.9433 108.649 63.891 108.765C63.549 109.534 63.3695 110.371 63.3647 111.218H63.4274C63.428 110.894 63.4548 110.571 63.5076 110.252C63.5852 109.748 63.7307 109.259 63.9398 108.798C64.0026 108.662 64.0724 108.53 64.1489 108.402C64.1638 108.371 64.1825 108.341 64.2047 108.315C64.3704 108.04 64.5631 107.785 64.7798 107.552C65.1241 107.187 65.5037 106.861 65.9125 106.578C66.7211 105.997 67.5994 105.506 68.3278 104.801C68.694 104.454 69.0077 104.051 69.2584 103.606C69.5067 103.159 69.6933 102.679 69.8126 102.178C69.8939 101.845 69.9476 101.506 69.9729 101.164C69.9729 101.146 69.9729 101.128 69.9729 101.113C69.9729 100.957 69.9729 100.804 69.9729 100.648C69.9714 100.417 69.9574 100.187 69.9311 99.9577V99.965ZM71.137 103.817C71.0772 103.306 70.9221 102.812 70.6805 102.363C70.4644 101.934 70.2099 101.531 69.9625 101.124L69.9346 101.08C69.7322 100.758 69.5484 100.423 69.3839 100.078H69.363C69.5319 100.439 69.7216 100.79 69.9311 101.128L69.9555 101.171C70.196 101.567 70.4435 101.963 70.6526 102.378C70.8901 102.827 71.0416 103.321 71.0987 103.831C71.1429 104.341 71.065 104.854 70.8722 105.324C70.6706 105.792 70.3454 106.191 69.9346 106.473C69.5247 106.747 69.0816 106.963 68.6171 107.116C67.6785 107.419 66.7257 107.672 65.7626 107.875C65.2816 107.991 64.8007 108.111 64.3301 108.26L64.1942 108.304L64.1071 108.329C63.7087 108.458 63.3197 108.616 62.943 108.802C62.4926 109.021 62.0794 109.316 61.7196 109.674C61.3597 110.036 61.0853 110.48 60.918 110.971L60.8866 111.069H60.9633C60.9698 111.042 60.978 111.015 60.9877 110.989C61.1508 110.508 61.418 110.073 61.7684 109.717C62.1222 109.366 62.5283 109.076 62.9709 108.86C63.3216 108.684 63.6838 108.535 64.0548 108.413C64.0816 108.4 64.1096 108.39 64.1385 108.384L64.3476 108.315C64.8181 108.169 65.2956 108.046 65.7731 107.93C66.7389 107.724 67.6939 107.467 68.6346 107.159C69.1054 106.997 69.5532 106.77 69.966 106.484C70.3833 106.196 70.7133 105.79 70.9175 105.314C71.108 104.839 71.1834 104.322 71.137 103.809V103.817Z" fill="white"/>
<path d="M58.3395 102.781C59.3043 102.309 60.3001 101.91 61.3195 101.586C62.3286 101.271 63.3584 101.035 64.4006 100.877C64.9931 100.779 65.5891 100.714 66.1851 100.645C66.206 100.645 66.206 100.67 66.1851 100.674C65.1383 100.838 64.1015 101.065 63.0796 101.353C62.0619 101.629 61.0511 101.925 60.0474 102.24C59.4758 102.418 58.9146 102.625 58.3535 102.825C58.3489 102.824 58.3446 102.822 58.341 102.819C58.3374 102.816 58.3347 102.812 58.3333 102.807C58.3318 102.803 58.3316 102.798 58.3327 102.793C58.3339 102.789 58.3362 102.784 58.3395 102.781Z" fill="#263238"/>
<path d="M70.4421 99.8153C70.3445 99.8153 64.9735 100.698 64.7923 100.753C64.8272 100.676 66.1864 98.0094 66.3921 97.6206C66.413 97.5806 66.4304 97.5407 66.4513 97.5043C66.5733 97.3335 66.6953 97.1664 66.7999 96.9956L67.2425 96.3234L66.7755 96.9702C66.7011 97.0719 66.6314 97.1737 66.5663 97.2754C66.7023 96.9993 66.8347 96.7231 66.9672 96.4433C67.1798 95.9964 67.375 95.5458 67.5736 95.0953C67.5736 95.0953 67.5562 95.0699 67.5492 95.0953C67.1484 95.8729 66.7267 96.6359 66.3224 97.4099C65.9181 98.1838 64.3915 101.043 64.3985 101.043C64.4054 101.043 70.3236 99.9533 70.4525 99.9206C70.4659 99.9192 70.4782 99.9122 70.4867 99.9013C70.4952 99.8904 70.4992 99.8765 70.4978 99.8625C70.4964 99.8485 70.4898 99.8357 70.4793 99.8268C70.4689 99.818 70.4555 99.8138 70.4421 99.8153Z" fill="#263238"/>
<path d="M69.7029 106.688C69.3544 105.43 69.0338 104.173 68.6573 102.93C68.4412 102.204 68.2251 101.517 68.0021 100.812C68.0021 100.787 67.9498 100.812 67.9533 100.812C68.2461 102.087 68.5423 103.356 68.8909 104.624C69.2394 105.892 69.5879 107.134 69.9365 108.384C70.1409 109.097 70.3733 109.799 70.6335 110.492C70.6335 110.492 70.6614 110.492 70.6579 110.492C70.3826 109.213 70.0445 107.952 69.7029 106.688Z" fill="#263238"/>
<path d="M73.8041 111.32C73.6682 110.956 73.5043 110.462 73.3545 110.117C73.3161 110.023 73.2534 110.03 73.2813 110.117C73.3754 110.433 73.4416 110.782 73.5357 111.105C73.2639 111.105 72.9955 111.105 72.7236 111.131L71.7861 111.171C71.1761 111.196 70.5627 111.214 69.9528 111.229C68.712 111.251 67.4724 111.251 66.2339 111.229C63.7473 111.18 61.2648 110.998 58.7962 110.684C58.0991 110.589 57.402 110.484 56.7328 110.357C56.0568 110.242 55.3868 110.091 54.7253 109.906C54.7253 109.906 54.6974 109.932 54.7253 109.939C55.2854 110.168 55.8624 110.349 56.4505 110.48C57.064 110.618 57.6843 110.742 58.3082 110.844C59.549 111.044 60.7968 111.174 62.048 111.269C64.5296 111.453 67.0158 111.53 69.5067 111.501C70.2037 111.501 70.9008 111.486 71.5979 111.454L72.6435 111.411C73.0321 111.415 73.4205 111.385 73.8041 111.32Z" fill="#263238"/>
<path d="M70.0117 88.0904C70.0117 88.4828 71.1933 91.2988 72.8418 91.604C73.3786 91.7021 74.0234 88.6717 74.0234 88.6717L74.1209 88.4573L75.4698 85.4851L72.0123 81.8516C72.0123 81.8516 70.0117 87.9269 70.0117 88.0904Z" fill="#D3766A"/>
<path d="M75.4594 85.482L74.1105 88.4579C73.3679 87.9493 72.736 87.2839 72.2557 86.5046C71.7754 85.7254 71.4574 84.8496 71.3223 83.9341C71.6708 82.8804 71.9531 82.0047 71.9915 81.8775C71.9929 81.8716 71.9929 81.8653 71.9915 81.8594L72.4376 82.2918L75.4594 85.482Z" fill="#263238"/>
<path d="M81.0124 82.1459C80.2387 87.8615 76.8649 88.025 75.6833 87.8506C74.6098 87.6907 70.9746 87.004 71.1803 81.2339C71.3859 75.4638 74.1777 74.0322 76.6523 74.2611C79.1269 74.4901 81.7897 76.4267 81.0124 82.1459Z" fill="#D3766A"/>
<path d="M80.3435 81.5253C80.218 81.4817 80.1135 81.42 79.995 81.3655C79.8642 81.3257 79.7492 81.2428 79.6674 81.1293C79.6487 81.0879 79.6436 81.0412 79.6531 80.9965C79.6626 80.9517 79.686 80.9116 79.7196 80.8822C79.7948 80.8365 79.8802 80.8125 79.9671 80.8125C80.054 80.8125 80.1394 80.8365 80.2146 80.8822C80.3826 80.9486 80.5206 81.0782 80.6014 81.2455C80.614 81.2835 80.6162 81.3243 80.6079 81.3635C80.5997 81.4026 80.5812 81.4387 80.5545 81.4676C80.5278 81.4965 80.494 81.5172 80.4568 81.5274C80.4196 81.5376 80.3804 81.5369 80.3435 81.5253Z" fill="#263238"/>
<path d="M76.6525 80.7618C76.7814 80.7618 76.9034 80.7618 77.0358 80.7618C77.1705 80.7811 77.3074 80.7543 77.4262 80.6855C77.4588 80.6553 77.4812 80.6149 77.49 80.5704C77.4988 80.5258 77.4935 80.4795 77.475 80.4384C77.4263 80.3634 77.3593 80.3033 77.2808 80.2643C77.2024 80.2254 77.1154 80.2089 77.0289 80.2167C76.8502 80.2057 76.6739 80.2639 76.534 80.3802C76.5045 80.409 76.4836 80.4459 76.4735 80.4866C76.4635 80.5273 76.4647 80.5702 76.4771 80.6102C76.4896 80.6502 76.5126 80.6857 76.5437 80.7125C76.5747 80.7394 76.6125 80.7564 76.6525 80.7618Z" fill="#263238"/>
<path d="M77.3696 81.7598C77.3696 81.7598 77.3382 81.7598 77.3347 81.7888C77.279 82.1776 77.1465 82.6136 76.791 82.6754V82.6972C77.2093 82.719 77.3766 82.1377 77.3696 81.7598Z" fill="#263238"/>
<path d="M77.1117 81.292C76.5261 81.1285 76.2543 82.3821 76.798 82.5202C77.3417 82.6582 77.6066 81.4301 77.1117 81.292Z" fill="#263238"/>
<path d="M76.8641 81.3173C76.7456 81.3609 76.6166 81.4627 76.4912 81.4445C76.3657 81.4263 76.2611 81.2701 76.1949 81.1211C76.1949 81.1211 76.174 81.1211 76.1705 81.1211C76.1272 81.2299 76.1255 81.3519 76.1656 81.462C76.2058 81.5721 76.2849 81.6621 76.3866 81.7134C76.5992 81.8006 76.8049 81.6298 76.9164 81.4045C76.9373 81.3573 76.9129 81.2846 76.8641 81.3173Z" fill="#263238"/>
<path d="M79.4219 82.1523C79.4219 82.1523 79.4463 82.1778 79.4428 82.1923C79.3452 82.5557 79.2929 83.0244 79.5961 83.2351C79.5961 83.2351 79.5961 83.2606 79.5961 83.2533C79.1814 83.0934 79.2546 82.4939 79.4219 82.1523Z" fill="#263238"/>
<path d="M79.8264 81.8341C80.4293 81.9358 80.1749 83.1821 79.6347 83.0877C79.0945 82.9932 79.3245 81.7505 79.8264 81.8341Z" fill="#263238"/>
<path d="M80.0598 81.9687C80.1434 82.0559 80.2131 82.194 80.3247 82.223C80.4362 82.2521 80.5756 82.1467 80.6732 82.0341H80.6906C80.6523 82.2703 80.5268 82.5028 80.3003 82.5064C80.0737 82.5101 79.9831 82.2703 79.9727 82.0232C79.9831 81.9941 80.0284 81.936 80.0598 81.9687Z" fill="#263238"/>
<path d="M76.5477 85.1067C76.6104 85.2229 76.6627 85.3683 76.7916 85.4192C76.9295 85.45 77.072 85.45 77.2099 85.4192C77.2099 85.4192 77.2308 85.4192 77.2099 85.441C77.1385 85.5011 77.0527 85.5396 76.9617 85.5525C76.8708 85.5653 76.7782 85.5518 76.6941 85.5136C76.6252 85.4721 76.5696 85.4103 76.5342 85.3359C76.4989 85.2616 76.4854 85.1781 76.4954 85.0958C76.5059 85.0921 76.5372 85.0921 76.5477 85.1067Z" fill="#263238"/>
<path d="M78.4335 84.0384C78.4335 84.0384 78.3882 84.6307 78.3324 84.9032C78.3324 84.9286 78.2627 84.925 78.1721 84.9032C77.9405 84.895 77.7155 84.8205 77.5219 84.6878C77.3282 84.5551 77.1733 84.3694 77.0742 84.151C77.0742 84.122 77.1021 84.1002 77.1195 84.122C77.3979 84.4314 77.7646 84.6391 78.1651 84.7142C78.2 84.6452 78.2104 83.7005 78.2523 83.7077C78.4494 83.7711 78.6371 83.8628 78.8099 83.9802C78.9354 82.7521 78.8727 81.5131 79.0156 80.2922C79.0156 80.2826 79.0192 80.2733 79.0258 80.2665C79.0323 80.2597 79.0412 80.2559 79.0504 80.2559C79.0597 80.2559 79.0685 80.2597 79.0751 80.2665C79.0816 80.2733 79.0853 80.2826 79.0853 80.2922C79.195 81.6231 79.1763 82.9621 79.0295 84.2891C79.019 84.4344 78.5276 84.1111 78.4335 84.0384Z" fill="#263238"/>
<path d="M78.0282 84.7796C77.8458 84.9479 77.6249 85.0643 77.3868 85.1175C77.256 85.1441 77.1204 85.1263 77 85.0666C76.7351 84.9358 76.7769 84.6706 76.871 84.4526C76.9215 84.3387 76.9847 84.2313 77.0592 84.1328C77.3076 84.4508 77.6472 84.6775 78.0282 84.7796Z" fill="#263238"/>
<path d="M77.4005 85.1181C77.2697 85.1446 77.1341 85.1268 77.0136 85.0672C76.7488 84.9364 76.7906 84.6711 76.8847 84.4531C77.0295 84.488 77.159 84.5724 77.2525 84.6929C77.346 84.8134 77.3981 84.9631 77.4005 85.1181Z" fill="#FF9BBC"/>
<path d="M71.1103 81.5388C71.4986 81.4689 71.863 81.2957 72.1683 81.036C72.4736 80.7763 72.7094 80.4389 72.853 80.0563C73.9053 79.9194 74.9037 79.493 75.7458 78.8209C75.6761 78.9227 75.1847 79.6712 74.9233 80.0418C78.4888 80.4306 80.3012 78.0579 80.3012 78.0579C80.7703 78.8772 81.0562 79.7963 81.1377 80.7467C81.1377 80.7467 81.779 78.5957 81.1377 76.8189C80.9359 76.2087 80.5819 75.6657 80.1121 75.2455C79.6422 74.8253 79.0735 74.5431 78.4644 74.428C77.6895 73.9588 76.8077 73.7159 75.9117 73.7248C75.0156 73.7338 74.1384 73.9943 73.3723 74.4788C70.4725 76.292 71.1103 81.5388 71.1103 81.5388Z" fill="#263238"/>
<path d="M77.6802 80.2562C77.0495 80.3963 76.4024 80.4391 75.7598 80.3833C76.7867 80.4085 77.7999 80.1328 78.684 79.5876C79.0649 79.3561 79.4162 79.0753 79.7296 78.7519C80.0809 78.4124 80.364 78.0036 80.5626 77.5492C80.5649 77.5424 80.5697 77.5369 80.5759 77.5339C80.579 77.5323 80.5823 77.5315 80.5857 77.5313C80.5891 77.5311 80.5925 77.5316 80.5957 77.5328C80.5989 77.534 80.6018 77.5359 80.6044 77.5382C80.6069 77.5406 80.6089 77.5435 80.6104 77.5467C80.6118 77.5499 80.6127 77.5534 80.6129 77.5569C80.613 77.5605 80.6125 77.564 80.6114 77.5673C80.4625 78.039 80.2387 78.4812 79.9492 78.8754C79.6451 79.2526 79.2778 79.569 78.8652 79.8092C78.497 80.0176 78.1029 80.1716 77.6941 80.2671" fill="#263238"/>
<path d="M71.992 81.8002C71.992 81.8002 71.2009 79.7618 70.34 80.0161C69.4791 80.2705 69.7998 83.0283 70.6223 83.5915C70.7228 83.671 70.8376 83.7286 70.96 83.7607C71.0823 83.7929 71.2096 83.7989 71.3342 83.7786C71.4589 83.7582 71.5783 83.7119 71.6853 83.6423C71.7924 83.5727 71.8848 83.4812 71.9572 83.3735L71.992 81.8002Z" fill="#D3766A"/>
<path d="M70.4507 80.8047C70.4507 80.8047 70.4298 80.8047 70.4507 80.8265C71.0223 81.2443 71.2175 81.9165 71.3081 82.6178C71.2861 82.5434 71.2488 82.4749 71.1989 82.417C71.149 82.3591 71.0876 82.3132 71.019 82.2825C70.9504 82.2517 70.8762 82.2369 70.8015 82.2389C70.7269 82.241 70.6536 82.2599 70.5866 82.2944C70.5692 82.2944 70.5866 82.3344 70.5866 82.3344C70.7065 82.3246 70.8262 82.3545 70.9288 82.4197C71.0314 82.485 71.1117 82.5822 71.1582 82.6978C71.2394 82.8876 71.3002 83.0862 71.3395 83.29C71.3569 83.3554 71.4649 83.3482 71.458 83.29V83.2719C71.6566 82.4071 71.2942 81.0954 70.4507 80.8047Z" fill="#263238"/>
<path d="M100.625 113.732H77.8203V114.797H100.625V113.732Z" fill="#C7C7C7"/>
<path d="M100.624 113.732V114.797H85.125L85.9057 113.732H100.624Z" fill="#A6A6A6"/>
<path d="M86.8887 114.797H109.115L110.965 99.0605H88.7394L86.8887 114.797Z" fill="#C7C7C7"/>
<path d="M97.5745 106.929C97.5708 107.113 97.6024 107.296 97.6675 107.468C97.7326 107.639 97.8299 107.794 97.9537 107.926C98.0774 108.057 98.2251 108.161 98.388 108.232C98.5509 108.303 98.7258 108.34 98.9024 108.339C99.262 108.335 99.606 108.185 99.8626 107.923C100.119 107.66 100.268 107.304 100.279 106.929C100.283 106.745 100.252 106.562 100.187 106.391C100.122 106.219 100.025 106.063 99.9011 105.932C99.7773 105.8 99.6294 105.696 99.4662 105.625C99.3031 105.554 99.128 105.519 98.9512 105.52C98.5916 105.524 98.2476 105.673 97.9911 105.936C97.7345 106.199 97.5853 106.555 97.5745 106.929Z" fill="white"/>
</svg>
