<svg width="24" height="24" viewBox="0 0 24 24" fill="none" xmlns="http://www.w3.org/2000/svg">
<path d="M17.66 22.6703C17.13 22.6703 16.45 22.5003 15.6 22.0003L12.61 20.2303C12.3 20.0503 11.7 20.0503 11.4 20.2303L8.4 22.0003C6.63 23.0503 5.59 22.6303 5.12 22.2903C4.66 21.9503 3.94 21.0803 4.41 19.0803L5.12 16.0103C5.2 15.6903 5.04 15.1403 4.8 14.9003L2.32 12.4203C1.08 11.1803 1.18 10.1203 1.35 9.60031C1.52 9.08031 2.06 8.16031 3.78 7.87031L6.97 7.34031C7.27 7.29031 7.7 6.97031 7.83 6.70031L9.6 3.17031C10.4 1.56031 11.45 1.32031 12 1.32031C12.55 1.32031 13.6 1.56031 14.4 3.17031L16.16 6.69031C16.3 6.96031 16.73 7.28031 17.03 7.33031L20.22 7.86031C21.95 8.15031 22.49 9.07031 22.65 9.59031C22.81 10.1103 22.91 11.1703 21.68 12.4103L19.2 14.9003C18.96 15.1403 18.81 15.6803 18.88 16.0103L19.59 19.0803C20.05 21.0803 19.34 21.9503 18.88 22.2903C18.63 22.4703 18.23 22.6703 17.66 22.6703ZM12 18.5903C12.49 18.5903 12.98 18.7103 13.37 18.9403L16.36 20.7103C17.23 21.2303 17.78 21.2303 17.99 21.0803C18.2 20.9303 18.35 20.4003 18.13 19.4203L17.42 16.3503C17.23 15.5203 17.54 14.4503 18.14 13.8403L20.62 11.3603C21.11 10.8703 21.33 10.3903 21.23 10.0603C21.12 9.73031 20.66 9.46031 19.98 9.35031L16.79 8.82031C16.02 8.69031 15.18 8.07031 14.83 7.37031L13.07 3.85031C12.75 3.21031 12.35 2.83031 12 2.83031C11.65 2.83031 11.25 3.21031 10.94 3.85031L9.17 7.37031C8.82 8.07031 7.98 8.69031 7.21 8.82031L4.03 9.35031C3.35 9.46031 2.89 9.73031 2.78 10.0603C2.67 10.3903 2.9 10.8803 3.39 11.3603L5.87 13.8403C6.47 14.4403 6.78 15.5203 6.59 16.3503L5.88 19.4203C5.65 20.4103 5.81 20.9303 6.02 21.0803C6.23 21.2303 6.77 21.2203 7.65 20.7103L10.64 18.9403C11.02 18.7103 11.51 18.5903 12 18.5903Z" fill="#FFAC33"/>
</svg>
