<svg width="38" height="38" viewBox="0 0 38 38" fill="none" xmlns="http://www.w3.org/2000/svg">
<g filter="url(#filter0_d_333_29275)">
<circle cx="19" cy="16" r="15" fill="white"/>
<path d="M16.9168 19.9934C16.6321 19.9934 16.3959 19.7573 16.3959 19.4726V16.5629L15.8959 17.0629C15.6946 17.2643 15.3612 17.2643 15.1598 17.0629C14.9584 16.8615 14.9584 16.5282 15.1598 16.3268L16.5487 14.9379C16.6946 14.7921 16.9237 14.7434 17.1182 14.8268C17.3126 14.9032 17.4376 15.0976 17.4376 15.3059V19.4726C17.4376 19.7573 17.2015 19.9934 16.9168 19.9934Z" fill="#292D32"/>
<path d="M18.3057 17.2159C18.1737 17.2159 18.0418 17.1673 17.9376 17.0632L16.5487 15.6743C16.3474 15.4729 16.3474 15.1395 16.5487 14.9382C16.7501 14.7368 17.0835 14.7368 17.2849 14.9382L18.6737 16.327C18.8751 16.5284 18.8751 16.8618 18.6737 17.0632C18.5696 17.1673 18.4376 17.2159 18.3057 17.2159Z" fill="#292D32"/>
<path d="M21.0834 23.4657H16.9167C13.1459 23.4657 11.5348 21.8546 11.5348 18.0838V13.9171C11.5348 10.1463 13.1459 8.53516 16.9167 8.53516H20.389C20.6737 8.53516 20.9098 8.77127 20.9098 9.05599C20.9098 9.34071 20.6737 9.57682 20.389 9.57682H16.9167C13.7153 9.57682 12.5765 10.7157 12.5765 13.9171V18.0838C12.5765 21.2852 13.7153 22.424 16.9167 22.424H21.0834C24.2848 22.424 25.4237 21.2852 25.4237 18.0838V14.6115C25.4237 14.3268 25.6598 14.0907 25.9445 14.0907C26.2292 14.0907 26.4653 14.3268 26.4653 14.6115V18.0838C26.4653 21.8546 24.8542 23.4657 21.0834 23.4657Z" fill="#292D32"/>
<path d="M25.9446 15.1323H23.1668C20.7918 15.1323 19.8682 14.2087 19.8682 11.8337V9.05594C19.8682 8.84761 19.9932 8.65316 20.1876 8.57677C20.3821 8.49344 20.6043 8.54205 20.7571 8.68789L26.3126 14.2434C26.4584 14.3893 26.5071 14.6184 26.4237 14.8129C26.3404 15.0073 26.1529 15.1323 25.9446 15.1323ZM20.9098 10.3129V11.8337C20.9098 13.6254 21.3751 14.0907 23.1668 14.0907H24.6876L20.9098 10.3129Z" fill="#292D32"/>
</g>
<defs>
<filter id="filter0_d_333_29275" x="0" y="0" width="38" height="38" filterUnits="userSpaceOnUse" color-interpolation-filters="sRGB">
<feFlood flood-opacity="0" result="BackgroundImageFix"/>
<feColorMatrix in="SourceAlpha" type="matrix" values="0 0 0 0 0 0 0 0 0 0 0 0 0 0 0 0 0 0 127 0" result="hardAlpha"/>
<feOffset dy="3"/>
<feGaussianBlur stdDeviation="2"/>
<feColorMatrix type="matrix" values="0 0 0 0 0.0352941 0 0 0 0 0.117647 0 0 0 0 0.258824 0 0 0 0.1 0"/>
<feBlend mode="normal" in2="BackgroundImageFix" result="effect1_dropShadow_333_29275"/>
<feBlend mode="normal" in="SourceGraphic" in2="effect1_dropShadow_333_29275" result="shape"/>
</filter>
</defs>
</svg>
