<svg width="17" height="16" viewBox="0 0 17 16" fill="none" xmlns="http://www.w3.org/2000/svg">
<g clip-path="url(#clip0_11796_33248)">
<path d="M8.5 0C4.08872 0 0.5 3.58889 0.5 8C0.5 12.4111 4.08872 16 8.5 16C12.9113 16 16.5 12.4111 16.5 8C16.5 3.58889 12.9113 0 8.5 0ZM8.5 14.3715C4.98668 14.3715 2.1285 11.5133 2.1285 8C2.1285 4.48668 4.98668 1.6285 8.5 1.6285C12.0133 1.6285 14.8715 4.48668 14.8715 8C14.8715 11.5133 12.0133 14.3715 8.5 14.3715Z" fill="#3378C2"/>
<path d="M13.0871 5.37844L12.0651 4.35623C11.9931 4.28425 11.8652 4.28425 11.7934 4.35623L6.95971 9.18994L5.20549 7.43588C5.13368 7.3639 5.006 7.3639 4.93386 7.43588L3.91181 8.45793C3.87566 8.49408 3.85547 8.54278 3.85547 8.59375C3.85547 8.64472 3.87566 8.69357 3.91181 8.72956L6.8239 11.6415C6.86135 11.6788 6.91037 11.6978 6.95971 11.6978C7.00873 11.6978 7.05807 11.6791 7.09553 11.6415L13.0871 5.64991C13.1233 5.61392 13.1436 5.56507 13.1436 5.51409C13.1436 5.46312 13.1233 5.41443 13.0871 5.37844Z" fill="#3378C2"/>
</g>
<defs>
<clipPath id="clip0_11796_33248">
<rect width="16" height="16" fill="white" transform="translate(0.5)"/>
</clipPath>
</defs>
</svg>
