<svg width="36" height="36" viewBox="0 0 36 36" fill="none" xmlns="http://www.w3.org/2000/svg">
<rect width="36" height="36" rx="10" fill="#F0F0F0"/>
<path d="M18.0001 26.3999C17.7501 26.3999 17.5001 26.3416 17.2917 26.2249C15.7334 25.3749 12.9917 24.4749 11.2751 24.2499L11.0334 24.2166C9.94175 24.0833 9.04175 23.0583 9.04175 21.9499V11.8833C9.04175 11.2249 9.30008 10.6249 9.77508 10.1916C10.2501 9.75826 10.8667 9.54993 11.5167 9.60826C13.3501 9.74993 16.1167 10.6666 17.6834 11.6499L17.8834 11.7666C17.9417 11.7999 18.0667 11.7999 18.1167 11.7749L18.2501 11.6916C19.8167 10.7083 22.5834 9.77493 24.4251 9.61659C24.4417 9.61659 24.5084 9.61659 24.5251 9.61659C25.1334 9.55826 25.7584 9.77493 26.2251 10.2083C26.7001 10.6416 26.9584 11.2416 26.9584 11.8999V21.9583C26.9584 23.0749 26.0584 24.0916 24.9584 24.2249L24.6834 24.2583C22.9667 24.4833 20.2167 25.3916 18.6917 26.2333C18.4917 26.3499 18.2501 26.3999 18.0001 26.3999ZM11.3167 10.8499C11.0501 10.8499 10.8084 10.9416 10.6167 11.1166C10.4084 11.3083 10.2917 11.5833 10.2917 11.8833V21.9499C10.2917 22.4416 10.7167 22.9166 11.1917 22.9833L11.4417 23.0166C13.3167 23.2666 16.1917 24.2083 17.8584 25.1166C17.9334 25.1499 18.0417 25.1583 18.0834 25.1416C19.7501 24.2166 22.6417 23.2666 24.5251 23.0166L24.8084 22.9833C25.2834 22.9249 25.7084 22.4416 25.7084 21.9499V11.8916C25.7084 11.5833 25.5917 11.3166 25.3834 11.1166C25.1667 10.9249 24.8917 10.8333 24.5834 10.8499C24.5667 10.8499 24.5001 10.8499 24.4834 10.8499C22.8917 10.9916 20.3251 11.8499 18.9251 12.7249L18.7917 12.8166C18.3334 13.0999 17.6834 13.0999 17.2417 12.8249L17.0417 12.7083C15.6167 11.8333 13.0501 10.9833 11.4167 10.8499C11.3834 10.8499 11.3501 10.8499 11.3167 10.8499Z" fill="#292D32"/>
<path d="M18 25.7002C17.6583 25.7002 17.375 25.4169 17.375 25.0752V12.5752C17.375 12.2335 17.6583 11.9502 18 11.9502C18.3417 11.9502 18.625 12.2335 18.625 12.5752V25.0752C18.625 25.4252 18.3417 25.7002 18 25.7002Z" fill="#292D32"/>
<path d="M14.4583 15.7002H12.5833C12.2416 15.7002 11.9583 15.4169 11.9583 15.0752C11.9583 14.7335 12.2416 14.4502 12.5833 14.4502H14.4583C14.7999 14.4502 15.0833 14.7335 15.0833 15.0752C15.0833 15.4169 14.7999 15.7002 14.4583 15.7002Z" fill="#292D32"/>
<path d="M15.0833 18.2002H12.5833C12.2416 18.2002 11.9583 17.9169 11.9583 17.5752C11.9583 17.2335 12.2416 16.9502 12.5833 16.9502H15.0833C15.4249 16.9502 15.7083 17.2335 15.7083 17.5752C15.7083 17.9169 15.4249 18.2002 15.0833 18.2002Z" fill="#292D32"/>
</svg>
