<svg width="16" height="16" viewBox="0 0 16 16" fill="none" xmlns="http://www.w3.org/2000/svg">
<path opacity="0.4" d="M14.6668 7.39967V4.59967C14.6668 2.26634 13.7335 1.33301 11.4002 1.33301H8.60016C6.26683 1.33301 5.3335 2.26634 5.3335 4.59967V5.33301H7.40016C9.7335 5.33301 10.6668 6.26634 10.6668 8.59967V10.6663H11.4002C13.7335 10.6663 14.6668 9.73301 14.6668 7.39967Z" stroke="#292D32" stroke-width="1.5" stroke-linecap="round" stroke-linejoin="round"/>
<path d="M10.6668 11.3997V8.59967C10.6668 6.26634 9.7335 5.33301 7.40016 5.33301H4.60016C2.26683 5.33301 1.3335 6.26634 1.3335 8.59967V11.3997C1.3335 13.733 2.26683 14.6663 4.60016 14.6663H7.40016C9.7335 14.6663 10.6668 13.733 10.6668 11.3997Z" stroke="#292D32" stroke-width="1.5" stroke-linecap="round" stroke-linejoin="round"/>
<path d="M4.05322 10.0002L5.35322 11.3002L7.94656 8.7002" stroke="#292D32" stroke-width="1.5" stroke-linecap="round" stroke-linejoin="round"/>
</svg>
