<svg width="14" height="15" viewBox="0 0 14 15" fill="none" xmlns="http://www.w3.org/2000/svg">
<path fill-rule="evenodd" clip-rule="evenodd" d="M7.18664 1.47711C7.06491 1.44166 6.93557 1.44166 6.81377 1.47711C6.77877 1.48732 6.71717 1.51285 6.58617 1.61203C6.44844 1.71634 6.27977 1.86562 6.01697 2.09922L2.52387 5.20418C2.09563 5.58484 1.97423 5.69965 1.88984 5.82658C1.80865 5.94872 1.74817 6.08338 1.71083 6.22518C1.67201 6.37265 1.66687 6.53958 1.66687 7.11258V10.4466C1.66687 11.0273 1.66741 11.422 1.69273 11.7269C1.71739 12.0239 1.76207 12.1755 1.81699 12.2812C1.94349 12.5247 2.14205 12.7233 2.38558 12.8498C2.49129 12.9047 2.64289 12.9494 2.93985 12.9741C3.24478 12.9994 3.63953 12.9999 4.22021 12.9999H4.33354V10.9999C4.33354 9.52718 5.52745 8.33325 7.00024 8.33325C8.47297 8.33325 9.66691 9.52718 9.66691 10.9999V12.9999H9.78024C10.3609 12.9999 10.7556 12.9994 11.0606 12.9741C11.3575 12.9494 11.5091 12.9047 11.6148 12.8498C11.8584 12.7233 12.0569 12.5247 12.1834 12.2812C12.2384 12.1755 12.283 12.0239 12.3077 11.7269C12.333 11.422 12.3336 11.0273 12.3336 10.4466V7.11258C12.3336 6.53958 12.3284 6.37265 12.2896 6.22518C12.2522 6.08338 12.1918 5.94872 12.1106 5.82658C12.0262 5.69965 11.9048 5.58484 11.4766 5.20418L7.98344 2.09922C7.72064 1.86562 7.55197 1.71634 7.41424 1.61203C7.28324 1.51285 7.22164 1.48732 7.18664 1.47711ZM6.44097 0.196957C6.80624 0.0905975 7.19417 0.0905975 7.55944 0.196957C7.81284 0.270764 8.02297 0.400551 8.21904 0.549004C8.40371 0.688818 8.61171 0.873678 8.85117 1.08655L12.3624 4.20764C12.3813 4.22444 12.3999 4.24102 12.4184 4.25738C12.7662 4.56619 13.0288 4.79948 13.221 5.08843C13.3833 5.33269 13.5043 5.60206 13.579 5.88572C13.6673 6.22125 13.6672 6.57258 13.6669 7.03765C13.6669 7.06232 13.6669 7.08725 13.6669 7.11258V10.4746C13.6669 11.0203 13.6669 11.4707 13.6364 11.8373C13.6048 12.2182 13.5369 12.5681 13.3666 12.8959C13.1136 13.3829 12.7165 13.78 12.2295 14.033C11.9017 14.2033 11.5518 14.2712 11.1709 14.3028C10.8042 14.3333 10.3539 14.3333 9.80818 14.3333H9.53691C9.53171 14.3333 9.52651 14.3333 9.52117 14.3333C9.44044 14.3333 9.34404 14.3333 9.25911 14.3263C9.16064 14.3181 9.01971 14.2971 8.87257 14.2207C8.68991 14.1258 8.54097 13.9769 8.44611 13.7943C8.36971 13.6471 8.34871 13.5061 8.34051 13.4077C8.33344 13.3228 8.33351 13.2263 8.33351 13.1456L8.33357 10.9999C8.33357 10.2635 7.73657 9.66658 7.00024 9.66658C6.26384 9.66658 5.66687 10.2635 5.66687 10.9999L5.66688 13.1456C5.66691 13.2263 5.66697 13.3228 5.6599 13.4077C5.65172 13.5061 5.63072 13.6471 5.55429 13.7943C5.45941 13.9769 5.31049 14.1258 5.12785 14.2207C4.98071 14.2971 4.83977 14.3181 4.74131 14.3263C4.65639 14.3333 4.55997 14.3333 4.47922 14.3333C4.47393 14.3333 4.46869 14.3333 4.46354 14.3333H4.19223C3.64653 14.3333 3.19617 14.3333 2.82949 14.3028C2.44859 14.2712 2.0987 14.2033 1.77094 14.033C1.2839 13.78 0.886775 13.3829 0.633775 12.8959C0.463522 12.5681 0.395608 12.2182 0.363975 11.8373C0.333528 11.4707 0.333535 11.0203 0.333542 10.4746V7.11258C0.333542 7.08725 0.333528 7.06232 0.333522 7.03765C0.333275 6.57258 0.333095 6.22125 0.421442 5.88572C0.496128 5.60206 0.617095 5.33269 0.779468 5.08843C0.971548 4.79948 1.23427 4.56619 1.58205 4.25738C1.60048 4.24102 1.61914 4.22444 1.63805 4.20764L5.14927 1.08656C5.38873 0.873678 5.59669 0.688818 5.78137 0.549004C5.97744 0.400551 6.18757 0.270764 6.44097 0.196957Z" fill="white"/>
</svg>
