<svg width="24" height="25" viewBox="0 0 24 25" fill="none" xmlns="http://www.w3.org/2000/svg">
<path d="M17.79 23.2402H6.21C3.47 23.2402 1.25 21.0102 1.25 18.2702V10.8602C1.25 9.50021 2.09 7.79021 3.17 6.95021L8.56 2.75021C10.18 1.49021 12.77 1.43021 14.45 2.61021L20.63 6.94021C21.82 7.77021 22.75 9.55021 22.75 11.0002V18.2802C22.75 21.0102 20.53 23.2402 17.79 23.2402ZM9.48 3.93021L4.09 8.13021C3.38 8.69021 2.75 9.96021 2.75 10.8602V18.2702C2.75 20.1802 4.3 21.7402 6.21 21.7402H17.79C19.7 21.7402 21.25 20.1902 21.25 18.2802V11.0002C21.25 10.0402 20.56 8.71021 19.77 8.17021L13.59 3.84021C12.45 3.04021 10.57 3.08021 9.48 3.93021Z" fill="white"/>
<path d="M16.5002 17.7499C16.3102 17.7499 16.1202 17.6799 15.9702 17.5299L12.4202 13.9799L11.3302 15.6199C11.2102 15.8099 11.0002 15.9299 10.7802 15.9499C10.5502 15.9699 10.3302 15.8899 10.1802 15.7299L6.9802 12.5299C6.6902 12.2399 6.6902 11.7599 6.9802 11.4699C7.2702 11.1799 7.7502 11.1799 8.0402 11.4699L10.5902 14.0199L11.6802 12.3799C11.8002 12.1899 12.0102 12.0699 12.2302 12.0499C12.4602 12.0299 12.6802 12.1099 12.8302 12.2699L17.0302 16.4699C17.3202 16.7599 17.3202 17.2399 17.0302 17.5299C16.8802 17.6799 16.6902 17.7499 16.5002 17.7499Z" fill="white"/>
<path d="M16.5 17.75H14.5C14.09 17.75 13.75 17.41 13.75 17C13.75 16.59 14.09 16.25 14.5 16.25H15.75V15C15.75 14.59 16.09 14.25 16.5 14.25C16.91 14.25 17.25 14.59 17.25 15V17C17.25 17.41 16.91 17.75 16.5 17.75Z" fill="white"/>
</svg>
