<svg width="15" height="16" viewBox="0 0 15 16" fill="none" xmlns="http://www.w3.org/2000/svg">
<path opacity="0.596982" d="M7 6.73154L4.3259 3.99439L5.15986 3.14076L2.57993 0.5L0 3.14076L2.57993 5.78152L3.41389 4.9279L5.92675 7.5L7 6.73154Z" fill="#272727"/>
<path opacity="0.596982" d="M11.6433 9.5C11.4384 9.52147 11.2308 9.53579 11.0199 9.53579C10.8176 9.53579 10.6166 9.52505 10.415 9.50418L8 12.1875L10.9967 14.8822C11.9126 15.7059 13.397 15.7059 14.313 14.8822C15.229 14.0586 15.229 12.7237 14.313 11.9001L11.6433 9.5Z" fill="#272727"/>
<path d="M12.6694 4.73187L10.7681 2.83063L12.7731 0.825625C12.3075 0.618125 11.7931 0.5 11.25 0.5C9.17877 0.5 7.50002 2.17875 7.50002 4.25C7.50002 4.62125 7.55565 4.97875 7.65627 5.3175L0.913165 10.7738C0.356291 11.2656 0.0237924 11.9731 0.00129243 12.715C-0.0218325 13.4575 0.266292 14.1844 0.79129 14.7087C1.30129 15.2194 1.97941 15.5 2.70066 15.5C3.47503 15.5 4.21378 15.1675 4.72628 14.5869L10.1825 7.84375C10.5213 7.94438 10.8788 8 11.25 8C13.3213 8 15 6.32125 15 4.25C15 3.70688 14.8819 3.1925 14.6744 2.72625L12.6694 4.73187Z" fill="#272727"/>
</svg>
