<svg width="400" height="450" viewBox="0 0 400 450" fill="none" xmlns="http://www.w3.org/2000/svg">
<g clip-path="url(#clip0_277_21430)">
<path d="M387.072 165.858H12.5857C9.24896 165.854 6.04996 164.574 3.69052 162.298C1.33107 160.023 0.00385288 156.937 0 153.719V12.1392C0.00385288 8.92081 1.33107 5.83532 3.69052 3.55958C6.04996 1.28385 9.24896 0.00371619 12.5857 0H387.072C390.408 0.00371619 393.607 1.28385 395.967 3.55958C398.326 5.83532 399.654 8.92081 399.657 12.1392V153.719C399.653 156.937 398.326 160.023 395.967 162.298C393.607 164.574 390.408 165.854 387.072 165.858Z" fill="#F2F2F2"/>
<path d="M299.734 158.115H72.03C55.0618 158.097 38.7941 151.587 26.7958 140.015C14.7975 128.442 8.04844 112.752 8.0293 96.3855V69.4785C8.04842 53.1123 14.7975 37.4217 26.7957 25.849C38.794 14.2763 55.0617 7.76661 72.03 7.74805H327.63C344.598 7.76661 360.866 14.2763 372.864 25.849C384.863 37.4217 391.612 53.1123 391.631 69.4785C391.603 92.9783 381.912 115.508 364.684 132.125C347.456 148.742 324.098 158.089 299.734 158.115Z" fill="white"/>
<path d="M240.995 48.278H90.4802C89.6194 48.278 88.7938 47.9482 88.1851 47.361C87.5763 46.7739 87.2344 45.9776 87.2344 45.1473C87.2344 44.317 87.5763 43.5207 88.1851 42.9336C88.7938 42.3464 89.6194 42.0166 90.4802 42.0166H240.995C241.856 42.0166 242.682 42.3464 243.29 42.9336C243.899 43.5207 244.241 44.317 244.241 45.1473C244.241 45.9776 243.899 46.7739 243.29 47.361C242.682 47.9482 241.856 48.278 240.995 48.278Z" fill="#E6E6E6"/>
<path d="M317.188 81.6803H90.4802C89.6194 81.6803 88.7938 81.3505 88.1851 80.7634C87.5763 80.1763 87.2344 79.3799 87.2344 78.5496C87.2344 77.7193 87.5763 76.923 88.1851 76.3359C88.7938 75.7488 89.6194 75.4189 90.4802 75.4189H317.188C318.049 75.4189 318.875 75.7488 319.483 76.3359C320.092 76.923 320.434 77.7193 320.434 78.5496C320.434 79.3799 320.092 80.1763 319.483 80.7634C318.875 81.3505 318.049 81.6803 317.188 81.6803Z" fill="#E6E6E6"/>
<path d="M317.188 115.083H90.4802C89.6194 115.083 88.7938 114.753 88.1851 114.166C87.5763 113.579 87.2344 112.782 87.2344 111.952C87.2344 111.122 87.5763 110.325 88.1851 109.738C88.7938 109.151 89.6194 108.821 90.4802 108.821H317.188C318.049 108.821 318.875 109.151 319.483 109.738C320.092 110.325 320.434 111.122 320.434 111.952C320.434 112.782 320.092 113.579 319.483 114.166C318.875 114.753 318.049 115.083 317.188 115.083Z" fill="#E6E6E6"/>
<path d="M317.188 115.083H90.4802C89.6194 115.083 88.7938 114.753 88.1851 114.166C87.5763 113.579 87.2344 112.782 87.2344 111.952C87.2344 111.122 87.5763 110.325 88.1851 109.738C88.7938 109.151 89.6194 108.821 90.4802 108.821H317.188C318.049 108.821 318.875 109.151 319.483 109.738C320.092 110.325 320.434 111.122 320.434 111.952C320.434 112.782 320.092 113.579 319.483 114.166C318.875 114.753 318.049 115.083 317.188 115.083Z" fill="#E6E6E6"/>
<path d="M225.112 85.5143C225.148 86.4574 225.398 87.3813 225.844 88.221C226.29 89.0608 226.922 89.7959 227.695 90.3747C228.468 90.9534 229.363 91.3617 230.317 91.5708C231.271 91.7798 232.261 91.7846 233.217 91.5847L245.595 111.171L250.864 100.388L238.301 83.4419C237.847 81.9148 236.827 80.6017 235.436 79.7512C234.044 78.9008 232.378 78.5722 230.752 78.8276C229.126 79.0831 227.654 79.9049 226.615 81.1373C225.575 82.3697 225.04 83.9271 225.112 85.5143Z" fill="#FFB6B6"/>
<path d="M318.004 141.648L275.345 119.33L261.89 107.154C261.89 107.154 256.04 105.644 258.193 103.809C260.346 101.975 254.211 100.205 254.211 100.205L246.988 93.6689L236.724 100.674L239.694 105.115C239.694 105.115 239.49 112.467 243.666 111.053C247.842 109.638 246.798 115.736 246.798 115.736L271.723 153.003L318.004 141.648Z" fill="#3F3D56"/>
<path d="M192.081 120.621C215.093 120.621 233.748 102.628 233.748 80.432C233.748 58.2363 215.093 40.2432 192.081 40.2432C169.069 40.2432 150.414 58.2363 150.414 80.432C150.414 102.628 169.069 120.621 192.081 120.621Z" fill="#7CB305"/>
<path d="M318.136 434.375H309.472L305.35 402.144H318.136V434.375Z" fill="#FFB6B6"/>
<path d="M322.709 448.853H316.496L315.387 443.195L312.546 448.853H296.068C295.278 448.853 294.509 448.61 293.872 448.158C293.236 447.707 292.766 447.071 292.531 446.343C292.296 445.616 292.308 444.835 292.566 444.115C292.823 443.395 293.313 442.773 293.963 442.34L307.122 433.574V427.854L320.963 428.651L322.709 448.853Z" fill="#2F2E41"/>
<path d="M248.843 434.375H240.179L236.057 402.144H248.843V434.375Z" fill="#FFB6B6"/>
<path d="M253.417 448.853H247.204L246.095 443.195L243.254 448.853H226.776C225.986 448.853 225.217 448.61 224.58 448.158C223.944 447.707 223.474 447.071 223.239 446.343C223.004 445.616 223.016 444.835 223.274 444.115C223.531 443.395 224.021 442.773 224.671 442.34L237.83 433.574V427.854L251.671 428.651L253.417 448.853Z" fill="#2F2E41"/>
<path d="M308.943 190.611H265.215V238.628H308.943V190.611Z" fill="#FFB6B6"/>
<path d="M266.225 214.295L258.824 222.73L246.042 248.685L213.835 322.598L207.023 338.229L212.524 365.862C212.524 365.862 213.414 385.33 213.414 388.517C213.414 395.006 219.041 398.601 219.041 398.601L223.169 419.338L263.197 417.716C263.197 417.716 261.801 394.858 253.417 389.092C245.033 383.326 241.179 353.276 241.179 353.276L236.624 339.944L281.025 289.178L281.311 306.923L281.45 315.512C281.45 315.512 274.948 371.376 282.527 382.218C290.107 393.059 282.682 391.784 282.682 391.784L283.043 414.147L330.471 414.472L320.008 350.086C320.008 350.086 314.695 346.04 317.537 341.972C320.38 337.905 314.782 332.924 314.782 332.924L317.293 282.659C317.293 282.659 314.513 273.977 317.783 272.849C321.053 271.72 318.212 264.254 318.212 264.254L318.698 254.525L308.943 224.352L266.225 214.295Z" fill="#2F2E41"/>
<path d="M309.616 190.612L314.325 176.985L317.689 172.443L319.034 159.466C319.034 124.427 310.931 130.261 310.931 130.261L306.252 117.938L284.725 117.289L270.934 129.942L259.497 133.835L255.019 156.28L263.197 180.23L265.215 193.207C261.365 200.062 261.691 196.82 264.879 201.967L302.889 212.024C316.344 216.566 316.344 204.887 313.646 201.967C310.948 199.047 309.616 190.612 309.616 190.612Z" fill="#3F3D56"/>
<path d="M292.707 112.933C303.729 112.933 312.664 104.315 312.664 93.6844C312.664 83.0536 303.729 74.4355 292.707 74.4355C281.685 74.4355 272.75 83.0536 272.75 93.6844C272.75 104.315 281.685 112.933 292.707 112.933Z" fill="#FFB6B6"/>
<path d="M319.35 119.378C319.538 119.685 319.652 120.028 319.684 120.382C319.715 120.736 319.663 121.093 319.532 121.425C319.401 121.758 319.193 122.057 318.926 122.302C318.658 122.546 318.336 122.729 317.984 122.837C315.307 123.694 313.659 126.192 311.735 128.19C309.817 130.182 306.73 131.837 304.281 130.481C301.839 129.131 301.671 125.686 299.625 123.817C297.634 122 294.324 122.221 291.983 123.603L291.913 123.644C291.509 123.898 291.036 124.033 290.554 124.03C290.072 124.028 289.6 123.89 289.199 123.632C288.797 123.375 288.483 123.009 288.294 122.581C288.105 122.153 288.051 121.68 288.138 121.223C288.958 117.015 289.778 112.808 290.597 108.601C288.444 113.604 285.318 118.163 281.387 122.032C280.305 123.237 278.933 124.169 277.391 124.745C275.992 125.173 274.633 123.778 273.274 124.031C276.651 121.182 288.007 102.923 285.975 90.7178C283.587 90.9774 281.199 91.2369 278.811 91.4965C278.552 90.4063 278 89.4013 277.21 88.5831C277.306 89.644 277.166 90.7126 276.799 91.7171C275.804 91.8274 274.801 91.9312 273.806 92.0415C272.42 92.1908 270.913 92.3205 269.722 91.6198C267.738 90.4518 267.677 87.6876 268.242 85.5074C269.897 79.1679 274.916 73.8666 281.058 71.0895C287.2 68.3188 289.016 74.4895 295.488 72.517C308.27 68.6238 318.065 75.2812 321.516 87.6357C324.416 97.9982 322.31 108.997 319.35 119.378Z" fill="#2F2E41"/>
<path d="M374.601 449.272H350.164L350.059 449.088C349.747 448.542 349.445 447.962 349.163 447.367C346.646 442.17 345.582 436.225 344.643 430.98L343.936 427.027C343.851 426.548 343.915 426.055 344.121 425.612C344.328 425.169 344.666 424.795 345.094 424.539C345.522 424.282 346.02 424.155 346.523 424.173C347.026 424.19 347.513 424.353 347.92 424.639C351.634 427.245 355.349 429.849 359.066 432.45C360.473 433.438 362.08 434.581 363.619 435.816C363.768 435.121 363.923 434.423 364.078 433.735C364.185 433.26 364.437 432.826 364.801 432.49C365.165 432.154 365.625 431.93 366.121 431.847C366.618 431.764 367.129 431.826 367.589 432.025C368.049 432.224 368.437 432.551 368.703 432.964L371.562 437.394C373.648 440.63 375.488 443.818 375.113 447.257C375.115 447.299 375.112 447.341 375.104 447.382C375.028 447.947 374.889 448.502 374.689 449.037L374.601 449.272Z" fill="#F0F0F0"/>
<path d="M399.128 449.782L166.914 450C166.683 449.999 166.461 449.91 166.297 449.751C166.134 449.593 166.042 449.378 166.042 449.155C166.042 448.931 166.134 448.717 166.297 448.558C166.461 448.4 166.683 448.31 166.914 448.309L399.128 448.091C399.36 448.092 399.582 448.182 399.745 448.34C399.909 448.498 400 448.713 400 448.936C400 449.16 399.909 449.374 399.745 449.533C399.582 449.691 399.36 449.781 399.128 449.782Z" fill="#CACACA"/>
<path d="M188.293 134.524L162.75 113.719C161.877 113.006 161.333 111.988 161.237 110.889C161.141 109.79 161.501 108.698 162.238 107.855L166.939 102.485C167.678 101.643 168.733 101.118 169.873 101.025C171.013 100.933 172.144 101.28 173.019 101.991L198.561 122.796C199.434 123.509 199.979 124.527 200.075 125.626C200.171 126.725 199.811 127.816 199.074 128.66L194.373 134.029C193.634 134.872 192.579 135.397 191.439 135.489C190.299 135.582 189.168 135.235 188.293 134.524Z" fill="#3F3D56"/>
<path d="M164.091 108.287C163.693 108.742 163.499 109.33 163.551 109.922C163.603 110.514 163.896 111.063 164.367 111.447L189.909 132.252C190.381 132.635 190.99 132.822 191.605 132.772C192.219 132.722 192.787 132.44 193.186 131.986L197.887 126.616C198.284 126.162 198.478 125.574 198.426 124.981C198.374 124.389 198.081 123.84 197.61 123.456L172.068 102.651C171.597 102.268 170.987 102.081 170.373 102.131C169.759 102.181 169.19 102.464 168.792 102.918L164.091 108.287Z" fill="white"/>
<path d="M179.086 116.375C178.998 116.495 178.881 116.593 178.747 116.662C178.612 116.731 178.462 116.768 178.31 116.771L174.297 116.86C174.168 116.863 174.039 116.841 173.919 116.797C173.799 116.752 173.689 116.684 173.596 116.598C173.502 116.512 173.428 116.41 173.376 116.296C173.324 116.182 173.295 116.059 173.292 115.935C173.289 115.811 173.312 115.687 173.358 115.571C173.405 115.455 173.475 115.349 173.564 115.259C173.653 115.169 173.76 115.097 173.878 115.047C173.996 114.997 174.123 114.969 174.252 114.966L176.877 114.908L174.291 108.328C174.2 108.093 174.209 107.833 174.316 107.604C174.423 107.376 174.619 107.197 174.863 107.108C175.106 107.019 175.376 107.027 175.613 107.13C175.85 107.233 176.035 107.422 176.128 107.656L179.206 115.489C179.261 115.63 179.281 115.783 179.263 115.933C179.245 116.084 179.19 116.228 179.102 116.354L179.086 116.375Z" fill="#7CB305"/>
<path d="M179.601 118.028C180.569 118.165 181.494 118.506 182.311 119.025C183.128 119.544 183.817 120.23 184.329 121.034C184.842 121.837 185.165 122.74 185.277 123.677C185.389 124.615 185.286 125.565 184.976 126.46L203.817 140.458L192.131 144.337L176.031 130.449C174.507 129.847 173.264 128.727 172.539 127.3C171.814 125.874 171.656 124.24 172.096 122.709C172.536 121.178 173.543 119.856 174.926 118.993C176.31 118.131 177.973 117.787 179.601 118.028Z" fill="#FFB6B6"/>
<path d="M277.689 124.95L229.451 153.557C229.451 153.557 210.002 146.616 213.803 143.403C217.604 140.189 205.504 138.017 205.504 138.017L192.137 129.343L184.38 138.038C184.38 138.038 185.793 152.161 188.198 149.716C190.603 147.27 194.197 153.95 194.197 153.95C194.197 153.95 195.26 161.409 202.105 159.532C208.951 157.655 227.319 177.331 227.319 177.331L286.686 155.975L277.689 124.95Z" fill="#3F3D56"/>
<path d="M190.615 96.5537C190.056 96.5537 189.504 96.4281 189.004 96.1868C188.504 95.9456 188.069 95.5953 187.734 95.1637L178.899 83.8019C178.615 83.4368 178.409 83.0215 178.291 82.5795C178.174 82.1375 178.148 81.6776 178.215 81.2259C178.282 80.7742 178.44 80.3397 178.681 79.9471C178.922 79.5545 179.241 79.2116 179.62 78.9378C180.384 78.385 181.345 78.1476 182.29 78.2779C182.759 78.3425 183.209 78.4954 183.616 78.7278C184.023 78.9603 184.379 79.2678 184.663 79.6328L190.443 87.0654L205.288 65.5882C205.818 64.8215 206.642 64.2892 207.578 64.1085C208.515 63.9278 209.488 64.1134 210.283 64.6246C211.078 65.1357 211.63 65.9305 211.817 66.8341C212.005 67.7377 211.812 68.6761 211.282 69.4428L193.613 95.0065C193.293 95.4688 192.863 95.8505 192.359 96.1195C191.855 96.3886 191.291 96.5371 190.715 96.5526C190.682 96.5532 190.649 96.5537 190.615 96.5537Z" fill="white"/>
</g>
<defs>
<clipPath id="clip0_277_21430">
<rect width="400" height="450" fill="white"/>
</clipPath>
</defs>
</svg>
